<?xml version="1.0" standalone="no"?>
<!DOCTYPE svg PUBLIC "-//W3C//DTD SVG 20010904//EN"
 "http://www.w3.org/TR/2001/REC-SVG-20010904/DTD/svg10.dtd">
<svg version="1.0" xmlns="http://www.w3.org/2000/svg"
 width="642.000000pt" height="642.000000pt" viewBox="0 0 642.000000 642.000000"
 preserveAspectRatio="xMidYMid meet">
<metadata>
Created by potrace 1.11, written by Peter Selinger 2001-2013
</metadata>
<g transform="translate(0.000000,642.000000) scale(0.100000,-0.100000)"
fill="#000000" stroke="none">
<path d="M0 6413 c0 -5 4 -14 9 -21 7 -11 11 -11 24 2 19 19 18 19 54 5 26
-10 26 -12 8 -19 -12 -4 -23 -3 -27 4 -4 6 -10 7 -15 3 -4 -5 -1 -12 7 -18 13
-8 13 -10 0 -19 -12 -7 -10 -9 7 -7 12 0 21 5 20 10 -1 5 4 12 12 15 10 3 12
0 8 -12 -4 -10 -1 -16 9 -16 11 0 12 -4 4 -19 -13 -25 -13 -31 0 -31 6 0 10 7
10 15 0 8 7 15 16 15 14 0 14 2 3 16 -12 15 -10 16 19 10 29 -7 32 -6 32 17 0
14 3 32 6 41 4 11 0 16 -14 16 -13 0 -22 -9 -26 -25 -6 -24 -26 -36 -26 -15 0
6 5 10 10 10 6 0 10 7 10 15 0 12 -16 15 -80 15 -44 0 -80 -3 -80 -7z m187
-25 c-3 -8 -6 -5 -6 6 -1 11 2 17 5 13 3 -3 4 -12 1 -19z"/>
<path d="M1652 6413 c-6 -2 -10 -9 -6 -14 3 -5 -3 -9 -12 -9 -10 0 -14 -3 -11
-7 9 -8 -32 -29 -74 -38 -31 -7 -59 -26 -59 -40 0 -9 -63 -65 -72 -65 -5 0 -8
-6 -8 -14 0 -8 -3 -16 -7 -18 -15 -6 -63 -77 -63 -92 0 -9 -6 -16 -12 -16 -10
0 -10 -2 0 -9 10 -6 8 -10 -8 -14 -12 -3 -20 -10 -17 -14 3 -5 -10 -17 -29
-28 -19 -10 -34 -23 -34 -28 0 -6 -18 -25 -39 -44 -22 -18 -45 -49 -51 -68 -6
-19 -18 -35 -25 -35 -7 0 -22 -17 -33 -37 -11 -23 -26 -37 -36 -37 -12 1 -15
-3 -11 -16 3 -10 0 -22 -7 -27 -19 -12 -40 -52 -33 -63 4 -6 0 -10 -8 -10 -11
0 -13 -7 -9 -22 4 -17 2 -20 -11 -15 -11 4 -17 -2 -22 -24 -4 -16 -11 -29 -16
-29 -5 0 -15 -16 -23 -35 -8 -19 -19 -35 -23 -35 -15 0 -34 -67 -31 -110 1
-23 -2 -44 -8 -48 -11 -8 -12 -32 -1 -49 4 -6 4 -18 1 -26 -3 -10 1 -17 13
-20 16 -4 16 -5 -2 -6 -16 -1 -17 -3 -6 -10 11 -7 7 -12 -16 -24 -16 -9 -35
-23 -42 -31 -13 -15 -20 -101 -9 -111 3 -3 1 -30 -4 -61 -5 -30 -6 -59 -3 -65
4 -5 2 -9 -3 -9 -12 0 -4 -39 12 -59 12 -16 15 -161 4 -161 -5 0 -8 -9 -8 -20
0 -11 -6 -20 -14 -20 -7 0 -24 -26 -36 -57 -12 -32 -26 -66 -31 -75 -5 -10 -9
-23 -9 -29 0 -6 -10 -20 -21 -30 -16 -14 -20 -25 -15 -44 4 -17 2 -25 -6 -26
-7 -1 -2 -5 12 -9 24 -8 24 -8 3 -9 -13 -1 -23 -7 -23 -16 0 -8 -9 -19 -20
-25 -15 -8 -18 -15 -11 -27 5 -10 5 -26 0 -41 -5 -13 -6 -28 -3 -34 4 -6 2 -8
-4 -4 -12 7 -21 -29 -21 -89 -1 -40 -8 -141 -15 -204 -2 -18 -8 -36 -13 -40
-12 -9 -15 -53 -3 -46 11 7 3 -23 -11 -41 -5 -6 -11 -32 -13 -58 -3 -25 -8
-51 -12 -57 -23 -38 -19 -332 5 -378 6 -11 12 -38 13 -61 1 -22 6 -48 13 -56
9 -13 14 -7 32 33 33 76 45 108 41 109 -1 0 2 7 8 15 13 16 34 85 68 227 14
57 28 107 31 112 3 5 7 33 10 62 2 29 9 73 14 98 5 25 7 49 4 54 -4 5 0 6 7 1
9 -6 11 0 5 26 -5 26 -4 30 5 19 8 -12 9 -9 5 11 -4 17 -1 32 10 43 9 9 12 16
6 16 -14 0 -14 37 -1 45 6 3 10 14 10 23 0 15 -2 15 -10 2 -5 -8 -10 -10 -10
-5 1 16 24 40 40 41 8 0 23 4 33 9 13 6 15 10 6 21 -13 16 -32 8 -23 -9 4 -7
-3 -2 -15 11 -26 26 -33 28 -29 6 2 -10 -3 -19 -10 -21 -10 -4 -11 2 -6 24 4
15 11 33 15 39 6 7 3 23 -6 40 -16 32 -19 54 -7 54 5 0 9 12 9 28 1 15 5 38 9
51 6 19 4 23 -7 17 -8 -5 -8 -2 2 6 15 12 19 27 20 76 1 12 6 22 11 22 5 0 8
6 5 13 -2 6 2 32 9 57 8 25 14 58 14 73 0 19 4 26 12 21 8 -5 9 -2 5 10 -4 9
3 34 14 56 11 22 18 44 15 49 -4 5 0 13 7 18 13 8 28 36 32 58 4 26 41 95 51
95 13 0 64 42 64 53 0 5 -4 6 -9 2 -5 -3 -12 -1 -16 5 -3 5 -1 10 4 10 6 0 11
7 11 15 0 8 5 15 11 15 6 0 17 7 25 15 14 13 13 15 -4 15 -15 0 -19 5 -15 20
6 22 20 25 43 9 12 -8 10 -9 -7 -4 -14 4 -23 2 -23 -4 0 -6 11 -11 25 -11 28
0 32 12 11 29 -8 7 -12 21 -9 31 3 11 0 20 -6 20 -6 0 -11 5 -11 11 0 5 3 8 8
6 4 -3 8 6 9 19 6 54 8 62 15 58 4 -3 8 4 8 16 0 12 5 18 10 15 6 -3 14 4 18
16 8 21 9 21 16 3 5 -13 9 -15 15 -6 9 15 71 -6 71 -24 0 -11 14 -21 35 -22 6
-1 9 7 7 17 -5 30 24 46 56 32 19 -9 27 -10 30 -1 3 8 8 8 18 -1 20 -16 19 20
-1 47 -12 16 -16 17 -24 5 -5 -8 -16 -11 -24 -8 -9 3 -17 1 -19 -5 -3 -8 -9
-8 -19 -2 -8 5 -23 9 -34 9 -11 0 -19 5 -19 10 17 117 17 118 -28 118 -10 0
-18 4 -18 8 0 5 11 9 25 9 14 0 25 5 25 10 0 6 -9 10 -21 10 -15 0 -19 5 -15
16 4 12 1 14 -14 9 -31 -10 -24 8 11 28 42 23 46 22 42 -15 -4 -27 -2 -30 7
-18 9 12 11 9 6 -17 -3 -21 0 -37 9 -47 8 -8 15 -22 15 -31 0 -9 9 -19 20 -22
11 -3 17 -9 14 -14 -3 -5 0 -9 5 -9 18 0 12 19 -8 30 -14 7 -19 18 -16 40 3
23 0 30 -13 30 -9 1 1 9 23 20 39 18 64 18 35 0 -8 -6 -10 -10 -4 -10 5 0 15
5 22 12 7 7 12 8 12 2 0 -5 -5 -15 -12 -22 -7 -7 -8 -12 -4 -12 5 0 2 -7 -5
-17 -11 -13 -11 -17 -1 -20 6 -3 9 -10 5 -16 -3 -7 6 -1 20 12 15 13 24 28 21
32 -2 4 4 13 15 18 16 9 20 7 24 -7 4 -14 5 -14 6 -1 1 12 8 15 29 12 20 -4
23 -2 12 6 -12 8 -10 12 12 20 31 12 44 29 31 42 -7 7 -20 -2 -39 -23 -40 -46
-44 -47 -61 -15 -8 16 -17 26 -20 23 -3 -3 0 -12 7 -21 7 -9 9 -19 5 -23 -4
-4 -10 -1 -12 6 -3 6 -9 10 -14 6 -5 -3 -9 2 -9 10 0 9 -8 16 -19 16 -34 0
-14 40 20 41 45 2 46 3 69 29 18 20 23 22 30 10 8 -12 10 -9 11 10 1 14 1 29
0 33 -1 4 8 3 18 -3 29 -15 45 -9 51 19 3 13 12 27 20 29 13 4 13 3 2 -10 -22
-27 9 -28 37 -2 19 17 27 20 33 11 6 -9 8 -8 8 2 0 11 3 12 11 4 13 -13 -20
-72 -38 -66 -7 3 -13 0 -13 -6 0 -22 29 -10 46 18 10 17 22 27 27 24 5 -3 2 8
-5 23 -9 18 -12 40 -7 59 l7 30 1 -27 c1 -20 5 -26 16 -22 18 7 19 0 4 -28 -8
-14 -8 -23 0 -31 7 -7 12 -5 17 6 6 16 9 16 39 -3 24 -15 34 -17 37 -8 3 8 7
6 11 -6 4 -10 3 -15 -3 -11 -6 3 -10 -1 -10 -9 0 -9 -4 -16 -10 -16 -5 0 -10
7 -10 17 0 9 -2 14 -5 11 -9 -9 6 -58 16 -52 5 3 9 0 9 -7 0 -9 3 -9 14 1 8 6
12 19 9 27 -5 12 -2 15 13 10 60 -18 64 -19 64 -8 0 7 5 9 10 6 6 -3 10 1 10
10 0 9 5 13 10 10 6 -4 8 -11 5 -16 -9 -14 5 -11 21 6 14 13 13 15 -3 16 -11
0 -13 3 -5 6 7 3 20 -1 29 -8 14 -12 15 -11 10 11 -4 14 -4 19 -1 13 7 -16 44
-17 44 -1 0 9 3 9 12 0 9 -9 17 -7 36 11 13 12 25 21 28 20 14 -9 24 0 24 23
0 15 4 23 10 19 6 -4 17 -1 25 5 8 6 19 9 25 5 6 -4 19 0 29 9 10 9 30 17 44
18 15 1 27 6 27 11 0 5 6 4 14 -2 11 -10 17 -7 30 11 9 12 16 17 16 10 0 -6 5
-12 11 -12 5 0 7 6 3 13 -6 9 -3 8 8 -1 14 -11 21 -11 42 3 14 9 23 22 20 29
-2 6 2 20 10 31 15 20 15 20 10 -1 -9 -36 30 -37 67 -3 25 23 34 27 45 18 12
-10 13 -9 8 5 -4 10 -1 16 9 16 8 0 17 -7 21 -15 3 -8 11 -15 18 -14 10 0 10
2 1 6 -18 7 -16 23 2 23 8 0 15 4 15 10 0 5 7 7 15 4 9 -4 15 0 15 7 0 12 2
12 9 0 5 -7 13 -11 19 -7 6 3 14 1 18 -5 5 -9 11 -6 22 7 13 18 14 18 7 -6
-12 -40 -11 -44 8 -48 13 -3 17 3 17 30 0 25 3 29 10 18 6 -9 10 -11 10 -3 0
7 7 10 15 7 8 -4 15 -1 15 5 0 15 27 14 36 -1 5 -7 3 -8 -6 -3 -9 5 -11 4 -6
-4 5 -7 16 -9 28 -5 14 4 18 2 14 -5 -4 -6 -16 -11 -27 -11 -10 0 -19 -4 -19
-10 0 -16 47 -12 53 4 4 10 25 16 64 18 49 3 60 6 68 26 5 12 15 22 22 22 12
0 43 38 43 53 0 5 -7 4 -15 -3 -19 -16 -20 -3 -1 16 16 15 27 18 25 7 -1 -5
-1 -17 0 -28 1 -18 2 -19 12 -2 5 9 7 22 4 27 -3 6 -1 10 4 10 6 0 11 -5 11
-11 0 -5 5 -7 10 -4 6 4 8 11 5 16 -6 9 8 13 34 9 8 -1 21 6 28 15 7 10 19 15
28 12 8 -4 15 -1 15 6 0 7 3 8 8 2 4 -5 18 -11 32 -13 20 -2 22 0 10 9 -12 8
-12 9 5 6 11 -2 19 -8 18 -15 -2 -6 4 -9 13 -5 10 4 14 13 10 27 -3 11 -6 24
-6 29 0 4 -5 7 -11 7 -5 0 -7 -6 -3 -12 5 -10 4 -10 -5 -2 -16 15 4 69 21 58
9 -6 9 -9 0 -12 -7 -2 -12 -8 -12 -14 0 -6 6 -8 14 -5 8 3 17 1 20 -6 3 -7 4
-3 1 9 -5 20 -2 21 49 18 31 -2 58 1 61 6 3 4 14 6 25 3 11 -3 20 0 20 6 0 6
4 11 9 11 5 0 6 -12 2 -27 -6 -22 -16 -30 -48 -38 -23 -6 -45 -13 -49 -18 -4
-4 -18 -7 -31 -7 -20 0 -35 -19 -15 -21 4 0 45 -2 92 -5 47 -2 95 -10 108 -16
17 -9 25 -9 34 0 9 9 9 12 0 12 -7 0 -12 4 -12 8 0 4 9 8 21 8 16 0 20 -5 16
-23 -5 -29 1 -30 13 0 l9 22 0 -23 c1 -27 23 -25 33 3 5 18 6 18 7 -3 1 -13 5
-20 11 -17 6 4 8 16 4 27 -6 19 -5 19 16 -2 15 -15 30 -20 46 -17 16 3 24 0
24 -10 0 -8 8 -13 18 -11 9 1 22 -1 28 -5 7 -4 27 -9 46 -11 40 -5 88 -26 88
-38 0 -4 10 -8 22 -8 12 0 29 -6 37 -14 9 -8 29 -17 44 -20 15 -2 34 -12 43
-20 8 -9 22 -16 30 -16 8 0 22 -9 31 -20 10 -11 23 -20 30 -20 7 0 13 -5 13
-10 0 -6 11 -15 25 -20 14 -5 28 -16 31 -25 3 -8 10 -13 14 -10 5 3 15 -4 23
-16 11 -15 16 -17 20 -7 4 9 6 7 6 -4 1 -10 5 -18 11 -18 5 0 32 -23 60 -52
27 -28 50 -48 50 -44 0 7 76 -69 133 -133 15 -17 27 -28 27 -25 0 4 7 1 15 -6
8 -7 13 -15 12 -19 -2 -3 6 -15 18 -26 22 -21 29 -25 46 -25 5 0 8 -4 5 -8 -3
-5 11 -23 30 -41 19 -18 32 -37 28 -42 -3 -5 -1 -8 4 -7 5 2 26 -17 47 -42 20
-25 42 -48 47 -51 6 -4 6 -9 -2 -14 -8 -5 -6 -11 7 -20 10 -7 19 -18 19 -24 1
-6 2 -15 3 -21 0 -5 8 -10 16 -10 8 0 15 -6 15 -13 0 -8 9 -22 20 -32 11 -10
20 -27 20 -37 0 -10 7 -21 15 -24 8 -4 15 -17 15 -29 0 -13 5 -27 11 -30 6 -4
8 -13 5 -21 -3 -7 -1 -16 5 -19 5 -4 7 -10 4 -15 -3 -5 0 -14 7 -22 7 -7 13
-17 13 -23 1 -22 26 -94 34 -100 5 -3 7 -14 4 -24 -5 -18 21 -69 32 -63 3 1 5
-1 6 -5 2 -18 -20 -12 -26 7 -3 11 -11 17 -17 14 -5 -4 -6 -9 -2 -13 5 -3 15
-16 21 -28 11 -19 10 -21 -2 -17 -8 4 -15 1 -15 -5 0 -6 5 -11 11 -11 6 0 9
-6 6 -14 -4 -10 0 -12 16 -8 21 5 21 5 4 -13 -11 -10 -14 -20 -9 -24 7 -4 7
-20 2 -41 -4 -19 -8 -27 -9 -17 -1 9 -7 17 -15 17 -12 0 -14 -12 -11 -52 2
-30 0 -47 -4 -39 -6 9 -10 5 -13 -13 -3 -14 -1 -26 3 -26 5 0 9 5 9 10 0 16
17 11 24 -7 4 -9 2 -20 -4 -23 -8 -5 -6 -9 4 -13 22 -9 20 -53 -4 -77 -11 -11
-16 -20 -10 -20 6 0 10 -13 10 -29 0 -16 5 -42 11 -58 6 -15 12 -41 15 -57 2
-16 11 -40 21 -55 9 -14 17 -28 16 -31 0 -3 7 -11 16 -18 14 -10 14 -11 -4 -5
-18 6 -19 5 -5 -11 8 -10 15 -26 15 -35 3 -44 6 -51 20 -51 8 0 15 -6 15 -12
1 -7 8 -26 16 -43 8 -16 12 -22 9 -12 -7 27 2 20 19 -14 9 -17 13 -35 11 -39
-3 -5 5 -6 17 -3 16 3 19 2 10 -4 -7 -6 -10 -17 -6 -28 5 -13 4 -16 -4 -11 -8
5 -12 -1 -12 -15 0 -12 3 -20 6 -16 8 7 34 -17 34 -32 0 -6 -6 -11 -12 -11 -7
0 -5 -5 5 -11 9 -5 17 -15 17 -20 0 -6 -6 -7 -12 -3 -8 4 -10 3 -5 -2 5 -5 14
-9 20 -9 8 0 11 -16 10 -43 -1 -23 1 -41 6 -38 4 3 13 -18 21 -46 7 -28 23
-78 37 -112 13 -33 29 -86 34 -116 6 -30 14 -59 19 -65 15 -18 30 -92 32 -154
1 -34 5 -56 9 -50 4 6 8 -9 10 -35 3 -33 1 -45 -8 -42 -6 3 -14 -2 -17 -10 -3
-7 0 -13 6 -11 15 3 19 -36 5 -45 -9 -6 -9 -8 0 -8 7 0 11 -15 10 -40 -1 -21
-4 -36 -7 -32 -3 4 -11 8 -18 10 -10 2 -10 -2 0 -17 9 -15 9 -23 -1 -35 -11
-12 -11 -19 -2 -30 15 -18 22 -107 10 -122 -6 -7 -5 -22 1 -38 13 -34 13 -39
0 -31 -7 4 -7 -3 0 -20 13 -33 13 -45 0 -25 -6 10 -7 -3 -3 -39 5 -45 4 -53
-8 -46 -11 6 -12 5 -1 -6 6 -7 12 -23 12 -36 0 -13 6 -23 13 -23 8 0 8 -3 -2
-9 -22 -14 -24 -77 -4 -108 10 -15 13 -24 7 -20 -7 4 -14 -2 -17 -14 -4 -16
-3 -18 8 -9 8 7 15 7 19 1 3 -5 0 -12 -6 -15 -9 -3 -8 -8 5 -16 14 -9 15 -15
6 -31 -9 -17 -6 -25 13 -46 l23 -25 -25 6 c-14 4 -20 4 -14 -1 13 -10 35 -93
28 -105 -3 -4 0 -8 5 -8 6 0 11 -8 11 -17 0 -11 7 -5 16 15 9 17 23 32 30 32
7 0 11 6 8 14 -3 8 4 16 18 20 15 4 19 9 11 14 -15 10 -8 92 9 103 10 7 10 9
1 9 -7 0 -13 5 -13 10 0 6 18 10 40 10 37 0 52 11 31 24 -5 3 -11 15 -14 26
-3 11 -1 18 4 14 9 -5 12 11 10 51 0 14 1 16 6 5 3 -8 14 -22 24 -31 22 -19
51 -84 42 -93 -4 -3 -1 -6 5 -6 7 0 12 8 12 18 0 9 10 -3 21 -28 11 -24 24
-47 30 -51 9 -5 14 -27 18 -78 0 -8 4 -11 8 -8 8 9 32 -24 33 -45 0 -10 7 -18
15 -18 15 0 21 -35 8 -43 -5 -2 -2 -2 6 0 10 2 12 -8 10 -41 -4 -43 -4 -43 23
-34 15 6 31 22 39 41 7 18 18 35 23 39 7 5 6 8 -3 8 -11 0 -11 3 -1 15 6 8 9
18 6 24 -3 5 -2 21 4 35 15 41 22 391 7 424 -20 45 -36 55 -85 54 -61 -1 -112
-23 -160 -69 -22 -21 -59 -55 -83 -76 -34 -31 -40 -40 -28 -48 11 -7 10 -9 -5
-9 -15 0 -17 5 -13 27 5 26 4 26 -9 8 -8 -10 -14 -15 -15 -9 -4 36 1 85 10
103 7 12 8 21 3 21 -6 0 -12 9 -15 20 -3 11 -2 18 3 15 4 -3 8 12 8 33 0 40 7
108 13 132 6 21 29 36 69 45 55 12 66 29 62 103 -4 67 9 132 38 192 17 34 25
80 37 203 3 34 9 69 13 77 4 8 11 51 14 95 10 117 17 156 26 150 10 -6 7 36
-4 53 -4 7 -3 18 2 25 10 12 9 69 -2 122 -5 23 -4 26 3 10 23 -47 8 6 -20 75
-33 81 -33 82 8 212 15 49 24 168 12 168 -4 0 -9 13 -12 29 -3 16 -12 35 -20
43 -24 23 -37 55 -32 78 2 13 1 20 -2 16 -4 -4 -15 13 -24 36 -10 27 -24 44
-36 46 -28 4 -76 49 -67 63 4 7 3 9 -4 5 -6 -3 -16 3 -22 14 -6 11 -15 20 -20
20 -18 0 -50 39 -44 55 9 22 -5 68 -19 62 -8 -3 -13 13 -14 52 -3 75 -23 181
-34 181 -5 0 -9 7 -9 15 0 8 -7 15 -15 15 -8 0 -15 7 -15 15 0 8 -4 15 -10 15
-5 0 -10 10 -10 23 0 16 -3 18 -9 9 -6 -10 -10 -8 -16 10 -4 12 -8 31 -8 40 0
10 -3 15 -7 13 -4 -3 -21 20 -36 50 -16 30 -32 55 -36 55 -5 0 -8 11 -8 25 0
14 -8 29 -20 35 -11 6 -20 17 -20 26 0 8 -6 17 -14 20 -9 3 -12 12 -9 21 4 11
2 14 -5 9 -8 -5 -12 1 -13 16 0 22 -1 22 -9 3 -7 -17 -9 -17 -9 -2 -1 9 -6 17
-12 17 -5 0 -7 5 -4 10 3 6 -1 10 -9 10 -10 0 -13 6 -9 17 4 11 3 14 -5 9 -15
-9 -15 -5 3 35 11 27 14 29 15 13 0 -12 7 -25 16 -28 8 -3 12 -2 9 3 -3 5 4
12 15 16 11 3 20 13 20 20 0 8 5 17 12 21 6 4 8 3 4 -4 -3 -6 -2 -13 4 -17 5
-3 10 1 10 9 0 8 4 18 10 21 6 3 7 -1 4 -10 -5 -11 -2 -14 12 -8 12 4 15 3 10
-5 -5 -8 5 -12 33 -12 38 0 41 -2 42 -27 0 -24 2 -23 13 12 10 32 13 36 17 20
6 -21 49 -33 49 -13 0 5 7 8 15 4 8 -3 15 -1 15 3 0 5 -7 11 -15 15 -8 3 -15
11 -15 17 0 7 10 5 26 -6 14 -9 32 -14 39 -11 10 3 12 0 8 -12 -5 -14 -3 -14
16 3 18 15 24 17 31 6 5 -9 14 -11 26 -6 11 5 23 7 28 6 4 -1 14 3 21 9 8 6
22 10 32 8 10 -2 17 2 16 9 -2 7 4 10 13 6 11 -4 12 -8 4 -13 -8 -5 -6 -11 5
-20 12 -10 15 -10 15 4 0 13 5 16 19 11 13 -4 21 0 25 12 3 10 4 3 2 -14 -3
-37 -1 -39 20 -18 20 19 43 19 50 0 9 -22 36 8 28 32 -5 17 -5 17 6 1 8 -13 8
-23 0 -37 -16 -30 -12 -38 6 -13 9 13 22 21 30 18 8 -3 11 0 8 8 -3 8 -1 17 5
21 6 3 11 0 11 -8 0 -9 12 -14 32 -15 17 0 35 -7 40 -14 6 -9 7 -6 3 10 -7 23
9 31 19 10 3 -9 8 -8 16 5 6 9 18 17 25 17 8 0 15 5 15 10 0 6 5 10 10 10 7 0
7 -6 0 -20 -6 -11 -14 -19 -18 -17 -4 1 -8 -1 -9 -6 -3 -6 2 -9 10 -6 1 1 25
3 52 5 28 2 69 6 93 9 42 6 43 7 40 42 -2 20 -9 38 -16 41 -8 2 -10 -2 -5 -15
7 -17 6 -17 -12 1 -18 18 -19 18 -26 0 -6 -14 -8 -15 -9 -4 -1 10 -4 9 -10 -5
-6 -16 -9 -17 -14 -5 -5 12 -22 14 -94 9 -64 -4 -90 -2 -98 8 -8 9 -14 9 -22
1 -14 -14 -130 -19 -138 -6 -4 5 -17 -1 -30 -13 -17 -16 -24 -18 -24 -8 0 11
-15 14 -64 14 -36 0 -68 -4 -72 -8 -11 -11 -21 -9 -38 9 -9 8 -16 11 -16 5 0
-6 -10 -9 -22 -8 -12 2 -39 1 -60 -3 -29 -6 -38 -4 -38 7 0 11 -3 11 -22 0
-13 -8 -30 -13 -38 -12 -8 0 -18 -4 -22 -9 -4 -6 -11 0 -17 14 -6 16 -10 19
-10 9 -1 -13 -13 -18 -48 -21 -27 -2 -51 1 -55 6 -4 6 -10 4 -14 -7 -8 -21
-30 -22 -67 -2 -23 12 -32 12 -48 2 -16 -10 -21 -9 -28 1 -5 8 -17 11 -33 7
-19 -5 -29 -1 -39 12 -13 19 -47 38 -61 35 -3 -1 -11 12 -17 28 -5 17 -14 30
-18 30 -4 0 -19 17 -33 38 -25 38 -69 81 -83 82 -11 0 -41 30 -30 30 4 0 0 5
-10 11 -9 6 -15 14 -13 18 3 4 -5 14 -18 21 -13 7 -30 23 -37 36 -7 13 -16 24
-21 24 -9 0 -47 41 -48 53 0 4 -7 15 -16 25 -63 71 -73 85 -69 92 3 4 -25 34
-61 66 -36 33 -72 65 -80 72 -8 7 -14 11 -14 8 0 -3 -10 3 -22 13 -69 60 -83
70 -107 82 -14 8 -59 46 -99 86 l-72 73 -1288 -1 c-708 0 -1293 -3 -1300 -6z
m1978 -177 c0 -2 -7 -9 -15 -16 -13 -11 -14 -10 -9 4 5 14 24 23 24 12z
m-1655 -35 c-3 -12 -11 -21 -16 -21 -5 0 -10 -12 -10 -27 -1 -19 -3 -22 -6 -9
-3 10 3 33 13 52 20 36 30 38 19 5z m623 -30 c11 -7 10 -9 -3 -14 -11 -5 -14
-3 -9 5 5 8 2 9 -9 5 -10 -3 -17 -2 -17 3 0 12 20 13 38 1z m-623 -11 c3 -5 1
-10 -4 -10 -6 0 -11 5 -11 10 0 6 2 10 4 10 3 0 8 -4 11 -10z m-250 -80 c3 -5
1 -10 -4 -10 -6 0 -11 5 -11 10 0 6 2 10 4 10 3 0 8 -4 11 -10z m1152 -66 c-3
-3 -12 -4 -19 -1 -8 3 -5 6 6 6 11 1 17 -2 13 -5z m-1432 -54 c3 -5 -3 -10
-14 -10 -12 0 -21 5 -21 10 0 6 6 10 14 10 8 0 18 -4 21 -10z m939 -46 c3 -8
2 -12 -4 -9 -6 3 -10 10 -10 16 0 14 7 11 14 -7z m-24 -44 c0 -5 -5 -10 -11
-10 -5 0 -7 5 -4 10 3 6 8 10 11 10 2 0 4 -4 4 -10z m-578 -80 c4 0 8 -6 8
-12 -1 -7 -10 -2 -20 11 -11 13 -20 28 -19 35 0 6 5 1 11 -11 6 -13 15 -23 20
-23z m-92 0 c-18 -12 -30 -13 -30 -2 0 4 10 9 22 9 18 2 20 0 8 -7z m-124 -87
c-10 -10 -19 5 -10 18 6 11 8 11 12 0 2 -7 1 -15 -2 -18z m-206 -118 c0 -8 -4
-15 -10 -15 -5 0 -10 7 -10 15 0 8 5 15 10 15 6 0 10 -7 10 -15z m61 -58 c-6
-8 -9 -16 -6 -19 3 -3 -1 -11 -10 -18 -13 -11 -15 -9 -13 13 1 14 6 23 10 21
4 -3 8 0 8 5 0 6 5 11 11 11 8 0 9 -4 0 -13z m4706 -59 c-3 -7 -5 -2 -5 12 0
14 2 19 5 13 2 -7 2 -19 0 -25z m-383 6 c3 -8 2 -12 -4 -9 -6 3 -10 10 -10 16
0 14 7 11 14 -7z m-271 -19 c-3 -9 -8 -14 -10 -11 -3 3 -2 9 2 15 9 16 15 13
8 -4z m30 -1 c-3 -9 0 -20 8 -25 11 -7 11 -9 -3 -9 -18 0 -25 30 -11 43 11 11
13 8 6 -9z m863 -11 c-3 -3 -13 -2 -23 2 -17 7 -17 8 2 15 19 7 34 -5 21 -17z
m-301 8 c3 -5 1 -12 -4 -15 -5 -3 -11 1 -15 9 -6 16 9 21 19 6z m250 -1 c3 -5
1 -10 -4 -10 -6 0 -11 5 -11 10 0 6 2 10 4 10 3 0 8 -4 11 -10z m-5055 -9 c0
-6 -9 -17 -21 -25 -12 -8 -18 -19 -14 -25 3 -6 1 -11 -4 -11 -6 0 -11 11 -11
25 0 16 6 25 15 25 8 0 15 5 15 10 0 6 5 10 10 10 6 0 10 -4 10 -9z m4036 -22
c3 -6 1 -16 -6 -22 -10 -9 -12 -8 -7 5 3 9 1 19 -6 22 -9 3 -9 5 0 5 6 1 15
-4 19 -10z m64 -10 c0 -6 -4 -7 -10 -4 -5 3 -10 1 -10 -6 0 -7 -3 -10 -6 -6
-10 10 5 39 16 32 5 -3 10 -11 10 -16z m-133 -941 c-3 -7 -5 -2 -5 12 0 14 2
19 5 13 2 -7 2 -19 0 -25z m-70 -165 c-3 -10 -5 -4 -5 12 0 17 2 24 5 18 2 -7
2 -21 0 -30z"/>
<path d="M6217 6409 c7 -7 15 -10 18 -7 3 3 -2 9 -12 12 -14 6 -15 5 -6 -5z"/>
<path d="M209 6368 c0 -13 -2 -38 -4 -56 -2 -22 1 -30 7 -24 19 19 48 1 48
-31 0 -42 6 -31 14 26 6 40 5 47 -9 47 -13 0 -16 6 -11 24 3 14 1 28 -6 32 -7
4 -8 3 -4 -4 4 -7 2 -12 -3 -12 -20 0 -12 -42 9 -47 11 -3 20 -10 20 -15 0 -6
-7 -7 -16 -4 -9 3 -20 6 -26 6 -7 0 -9 15 -5 40 3 22 1 40 -4 40 -5 0 -9 -10
-10 -22z"/>
<path d="M6010 6351 c0 -6 4 -13 10 -16 6 -3 7 1 4 9 -7 18 -14 21 -14 7z"/>
<path d="M286 6337 c3 -10 9 -15 12 -12 3 3 0 11 -7 18 -10 9 -11 8 -5 -6z"/>
<path d="M175 6321 c-3 -5 -1 -12 5 -16 5 -3 10 1 10 9 0 18 -6 21 -15 7z"/>
<path d="M150 6303 c0 -4 5 -15 10 -23 8 -13 10 -13 10 2 0 9 -4 20 -10 23 -5
3 -10 3 -10 -2z"/>
<path d="M300 6300 c0 -5 5 -10 10 -10 6 0 10 5 10 10 0 6 -4 10 -10 10 -5 0
-10 -4 -10 -10z"/>
<path d="M341 6278 c-1 -10 -5 -18 -11 -18 -5 0 -10 -6 -10 -14 0 -8 -6 -17
-12 -19 -7 -3 1 -6 17 -6 21 0 26 2 16 8 -18 12 -5 32 17 25 10 -4 13 -3 6 3
-6 4 -14 15 -17 23 -4 12 -6 11 -6 -2z"/>
<path d="M180 6271 c0 -10 19 -25 25 -20 1 2 -3 10 -11 17 -8 7 -14 8 -14 3z"/>
<path d="M282 6255 c0 -16 2 -22 5 -12 2 9 2 23 0 30 -3 6 -5 -1 -5 -18z"/>
<path d="M0 6096 c1 -97 5 -176 9 -176 9 0 11 14 13 82 0 26 4 45 8 43 4 -3
10 7 13 20 2 14 0 28 -6 32 -5 3 1 12 14 20 l24 14 -25 -6 c-17 -4 -21 -3 -12
3 8 5 13 13 13 18 -1 5 6 17 14 27 9 10 10 17 4 17 -8 0 -8 4 -2 13 5 6 10 21
10 33 1 17 -3 20 -23 16 -13 -2 -31 1 -39 8 -14 11 -15 -7 -15 -164z"/>
<path d="M233 6255 c-17 -19 -16 -25 2 -25 8 0 15 9 15 20 0 23 -1 24 -17 5z"/>
<path d="M151 6251 c-8 -5 -10 -14 -6 -21 6 -9 10 -8 17 4 12 21 7 28 -11 17z"/>
<path d="M190 6220 c0 -5 5 -10 11 -10 5 0 7 5 4 10 -3 6 -8 10 -11 10 -2 0
-4 -4 -4 -10z"/>
<path d="M410 6225 c0 -5 5 -17 10 -25 5 -8 10 -10 10 -5 0 6 -5 17 -10 25 -5
8 -10 11 -10 5z"/>
<path d="M145 6188 l-20 -21 23 12 c12 6 22 16 22 21 0 13 -2 12 -25 -12z"/>
<path d="M225 6200 c-3 -5 -1 -10 4 -10 6 0 11 5 11 10 0 6 -2 10 -4 10 -3 0
-8 -4 -11 -10z"/>
<path d="M286 6184 c-4 -9 -4 -19 -1 -22 3 -3 5 0 5 7 0 7 4 9 10 6 6 -3 7 1
4 9 -8 20 -10 20 -18 0z"/>
<path d="M212 6150 c0 -14 2 -19 5 -12 2 6 2 18 0 25 -3 6 -5 1 -5 -13z"/>
<path d="M60 6150 c-9 -6 -10 -10 -3 -10 6 0 15 5 18 10 8 12 4 12 -15 0z"/>
<path d="M110 6139 c0 -5 5 -7 10 -4 6 3 10 8 10 11 0 2 -4 4 -10 4 -5 0 -10
-5 -10 -11z"/>
<path d="M2948 5953 c7 -3 16 -2 19 1 4 3 -2 6 -13 5 -11 0 -14 -3 -6 -6z"/>
<path d="M6400 5917 c-16 -13 -26 -47 -13 -47 19 1 34 19 31 38 -2 17 -6 18
-18 9z"/>
<path d="M1 5894 c0 -11 3 -14 6 -6 3 7 2 16 -1 19 -3 4 -6 -2 -5 -13z"/>
<path d="M1717 5763 c3 -7 6 -13 8 -13 2 0 5 6 8 13 3 8 -1 14 -8 14 -7 0 -11
-6 -8 -14z"/>
<path d="M1755 5720 c-3 -5 -4 -14 0 -19 3 -5 -2 -16 -10 -24 -17 -18 -19 -27
-6 -27 10 0 20 23 27 58 5 23 -1 29 -11 12z"/>
<path d="M1608 5693 c7 -3 16 -2 19 1 4 3 -2 6 -13 5 -11 0 -14 -3 -6 -6z"/>
<path d="M1532 5655 c-17 -37 -14 -45 4 -12 9 16 14 31 11 33 -2 2 -9 -7 -15
-21z"/>
<path d="M1562 5654 c-11 -27 -11 -27 3 -10 8 11 15 14 15 7 0 -7 5 -9 10 -6
6 3 10 11 10 16 0 6 -4 8 -9 5 -5 -4 -11 -1 -13 5 -2 6 -9 -2 -16 -17z"/>
<path d="M1686 5654 c-5 -14 -4 -15 9 -4 17 14 19 20 6 20 -5 0 -12 -7 -15
-16z"/>
<path d="M1791 5634 c0 -11 3 -14 6 -6 3 7 2 16 -1 19 -3 4 -6 -2 -5 -13z"/>
<path d="M1476 5625 c-3 -8 -1 -17 5 -20 5 -4 7 -11 3 -16 -3 -5 -11 -6 -17
-2 -7 4 -6 -1 2 -10 13 -16 15 -16 32 4 23 27 24 30 4 23 -11 -4 -13 -2 -9 9
3 8 1 18 -4 21 -6 3 -12 -1 -16 -9z"/>
<path d="M1745 5630 c-3 -5 -1 -10 4 -10 6 0 11 5 11 10 0 6 -2 10 -4 10 -3 0
-8 -4 -11 -10z"/>
<path d="M1390 5598 c0 -4 7 -8 15 -8 8 0 15 4 15 8 0 5 -7 9 -15 9 -8 0 -15
-4 -15 -9z"/>
<path d="M1488 5513 c7 -3 16 -2 19 1 4 3 -2 6 -13 5 -11 0 -14 -3 -6 -6z"/>
<path d="M1427 5480 c-9 -11 -13 -20 -7 -20 5 0 13 6 17 14 4 7 15 16 23 19
13 5 13 6 0 6 -9 1 -23 -8 -33 -19z"/>
<path d="M1285 5480 c-3 -5 -1 -10 4 -10 6 0 11 5 11 10 0 6 -2 10 -4 10 -3 0
-8 -4 -11 -10z"/>
<path d="M1350 5475 c7 -9 15 -13 17 -11 7 7 -7 26 -19 26 -6 0 -6 -6 2 -15z"/>
<path d="M5345 5480 c-3 -5 1 -10 10 -10 9 0 13 5 10 10 -3 6 -8 10 -10 10 -2
0 -7 -4 -10 -10z"/>
<path d="M1386 5435 c4 -8 10 -12 15 -9 14 8 10 24 -6 24 -9 0 -12 -6 -9 -15z"/>
<path d="M5438 5393 c7 -3 16 -2 19 1 4 3 -2 6 -13 5 -11 0 -14 -3 -6 -6z"/>
<path d="M5478 5393 c6 -2 18 -2 25 0 6 3 1 5 -13 5 -14 0 -19 -2 -12 -5z"/>
<path d="M5850 5389 c0 -5 5 -7 10 -4 6 3 10 8 10 11 0 2 -4 4 -10 4 -5 0 -10
-5 -10 -11z"/>
<path d="M1490 5370 c0 -5 5 -10 11 -10 5 0 7 5 4 10 -3 6 -8 10 -11 10 -2 0
-4 -4 -4 -10z"/>
<path d="M5420 5364 c0 -8 5 -12 10 -9 6 4 8 11 5 16 -9 14 -15 11 -15 -7z"/>
<path d="M5458 5373 c7 -3 16 -2 19 1 4 3 -2 6 -13 5 -11 0 -14 -3 -6 -6z"/>
<path d="M1430 5344 c0 -8 5 -12 10 -9 6 4 8 11 5 16 -9 14 -15 11 -15 -7z"/>
<path d="M1220 5310 c8 -5 20 -10 25 -10 6 0 3 5 -5 10 -8 5 -19 10 -25 10 -5
0 -3 -5 5 -10z"/>
<path d="M1195 5289 c-4 -6 -5 -12 -2 -15 2 -3 7 2 10 11 7 17 1 20 -8 4z"/>
<path d="M1141 5274 c0 -11 3 -14 6 -6 3 7 2 16 -1 19 -3 4 -6 -2 -5 -13z"/>
<path d="M1327 5273 c3 -7 6 -13 8 -13 2 0 5 6 8 13 3 8 -1 14 -8 14 -7 0 -11
-6 -8 -14z"/>
<path d="M1296 5262 c-3 -5 1 -9 9 -9 8 0 12 4 9 9 -3 4 -7 8 -9 8 -2 0 -6 -4
-9 -8z"/>
<path d="M1115 5240 c3 -5 8 -10 11 -10 2 0 4 5 4 10 0 6 -5 10 -11 10 -5 0
-7 -4 -4 -10z"/>
<path d="M3626 4945 c4 -8 11 -15 16 -15 6 0 5 6 -2 15 -7 8 -14 15 -16 15 -2
0 -1 -7 2 -15z"/>
<path d="M3517 4936 c-5 -12 -12 -14 -32 -6 -17 7 -25 6 -25 -1 0 -8 -4 -8
-14 0 -11 9 -21 4 -48 -22 -19 -19 -42 -36 -51 -40 -10 -4 -14 -13 -10 -28 4
-15 3 -20 -5 -15 -18 11 -14 54 4 64 9 5 14 14 10 21 -9 15 -35 -11 -59 -58
-17 -35 -17 -32 -3 19 7 24 7 24 -12 -3 -22 -33 -32 -35 -44 -12 -9 15 -11 15
-24 -2 -12 -16 -13 -16 -14 -2 0 20 -27 33 -34 16 -3 -7 -5 -6 -5 3 -1 9 -9
16 -20 17 -11 1 -18 -5 -17 -14 0 -9 -5 -17 -12 -19 -7 -1 -8 0 -2 3 14 6 -7
33 -26 33 -7 0 -21 8 -30 18 -17 16 -18 16 -11 0 7 -20 -8 -25 -16 -5 -3 7 -6
5 -6 -5 -1 -9 -9 -22 -18 -28 -12 -7 -14 -13 -7 -16 7 -3 10 -14 7 -24 -3 -11
-9 -18 -13 -15 -5 3 -3 -8 3 -25 8 -20 14 -26 20 -17 5 7 6 2 2 -12 -5 -16 -4
-21 4 -17 7 5 9 1 5 -9 -6 -14 -8 -14 -21 2 -13 17 -13 16 -4 -4 6 -12 11 -31
11 -42 0 -12 5 -21 10 -21 6 0 10 -8 10 -17 0 -16 2 -16 11 -3 8 12 9 9 4 -10
-14 -55 -17 -60 -26 -55 -5 4 -15 0 -23 -7 -14 -15 -12 -58 4 -68 6 -4 1 -15
-10 -28 -24 -26 -25 -32 -4 -32 8 0 12 -5 9 -10 -4 -6 -11 -8 -16 -5 -13 9
-11 -11 4 -27 14 -15 15 -37 4 -55 -5 -7 -4 -13 2 -13 13 0 62 -90 55 -101 -3
-5 2 -6 12 -2 13 5 15 2 9 -17 -5 -15 -4 -20 4 -16 6 4 11 0 11 -8 0 -9 6 -16
13 -16 7 0 21 -12 32 -26 18 -25 61 -49 78 -45 4 0 4 -7 -2 -16 -14 -28 8 -49
85 -84 38 -17 76 -37 84 -45 18 -15 135 -25 149 -11 5 5 23 5 45 -1 20 -6 36
-7 36 -3 0 10 141 11 160 1 8 -4 28 -2 45 5 21 9 36 10 49 3 12 -7 16 -7 12 0
-3 6 7 17 23 25 18 9 31 11 33 5 4 -10 138 -19 301 -21 42 0 77 -5 77 -10 0
-5 6 -7 14 -4 8 3 17 3 20 0 3 -4 26 -7 51 -8 49 -1 96 -32 73 -47 -12 -7 18
-13 50 -9 6 1 12 -4 12 -11 0 -9 3 -9 11 -1 12 12 118 6 132 -7 5 -4 18 -5 30
-2 20 5 20 6 1 13 -16 7 -17 8 -1 8 9 1 17 6 17 12 0 5 -4 8 -9 4 -5 -3 -13 4
-16 16 -5 13 -10 17 -14 11 -5 -8 -12 -4 -21 9 -8 12 -23 30 -32 41 -10 12
-18 27 -18 35 0 7 -11 18 -25 23 -14 5 -30 21 -36 34 -7 14 -17 22 -25 19 -8
-3 -14 0 -14 6 0 6 -7 11 -15 11 -8 0 -15 5 -15 10 0 6 -6 10 -12 9 -20 -3
-49 12 -42 22 3 5 -1 6 -9 3 -8 -3 -18 0 -22 5 -9 16 -73 41 -101 41 -13 0
-24 3 -24 8 0 4 -12 8 -26 9 -15 0 -29 5 -33 10 -11 16 -38 22 -50 10 -8 -8
-11 -8 -11 1 0 7 -8 12 -17 12 -10 0 -36 6 -58 14 -37 13 -139 27 -210 30 -16
1 -35 5 -42 9 -6 4 -38 8 -70 8 -66 1 -116 16 -106 32 4 6 -2 8 -15 5 -12 -4
-25 -2 -28 3 -3 5 0 8 8 7 7 -2 12 3 10 10 -1 6 2 12 8 12 5 0 10 7 10 15 0 9
21 37 46 63 26 26 44 42 41 36 -3 -6 0 -11 8 -11 8 0 12 4 9 9 -3 4 0 8 6 8 6
0 8 5 4 12 -5 7 -2 9 9 5 12 -4 14 -2 10 10 -4 11 -2 14 5 9 7 -4 12 -3 12 3
0 5 10 11 23 13 12 2 21 9 19 16 -1 6 2 12 8 12 5 0 10 -6 10 -12 1 -7 11 -1
23 13 12 15 30 25 40 24 9 -2 15 1 11 6 -3 5 4 9 15 9 10 0 22 6 24 13 4 9 8
9 15 -2 7 -9 16 -11 28 -6 11 4 35 9 54 11 19 1 49 5 65 9 56 11 85 13 79 4
-3 -5 0 -9 6 -9 6 0 8 -6 5 -12 -4 -7 1 -4 10 7 17 20 17 20 11 -2 -4 -12 -2
-24 4 -28 6 -3 10 3 10 14 0 12 5 21 10 21 6 0 9 -5 8 -12 -2 -7 2 -13 7 -13
6 -1 23 -5 38 -10 21 -6 25 -10 15 -16 -9 -6 -5 -9 12 -9 15 0 31 -5 37 -11 5
-5 24 -11 42 -11 18 -1 42 -11 57 -25 14 -12 30 -23 37 -23 8 0 8 -3 -1 -9
-10 -6 -2 -11 24 -16 40 -7 63 -28 64 -57 0 -10 4 -18 10 -18 5 0 12 -11 16
-24 3 -13 14 -26 25 -29 12 -3 22 -17 25 -36 4 -17 10 -28 15 -25 5 3 9 0 9
-6 0 -6 5 -8 10 -5 6 3 10 -1 10 -10 0 -9 4 -14 9 -10 12 7 51 -42 51 -64 0
-13 2 -13 9 -2 7 11 11 10 20 -5 10 -18 10 -18 11 1 1 15 3 16 7 5 7 -17 23
-30 37 -30 6 0 2 6 -7 13 -10 6 -19 26 -20 42 -2 24 2 30 20 30 26 0 50 21 38
32 -4 5 -10 2 -12 -5 -4 -9 -11 -6 -24 9 -15 18 -17 24 -7 31 12 7 4 12 -14 9
-5 0 -7 2 -7 7 4 22 -2 42 -10 37 -6 -3 -15 4 -21 16 -10 17 -9 20 2 14 7 -3
6 -1 -3 7 -23 19 -86 142 -83 161 1 10 -2 15 -7 11 -5 -3 -9 2 -9 11 0 8 -9
23 -20 32 -11 10 -20 23 -20 30 0 7 -7 13 -15 13 -8 0 -24 9 -35 20 -12 12
-25 18 -31 15 -5 -4 -8 -2 -7 4 2 6 -15 21 -37 34 -22 12 -46 28 -53 35 -11
10 -33 15 -58 11 -4 0 -10 5 -14 11 -4 7 -43 14 -96 17 -124 6 -134 7 -134 14
0 3 -11 4 -25 1 -15 -2 -25 0 -25 7 0 6 7 11 15 11 8 0 15 5 15 10 0 6 -6 10
-14 10 -8 0 -17 6 -19 13 -3 6 -6 3 -6 -8 -1 -19 -8 -21 -71 -22 -38 -1 -70 0
-70 3 0 3 5 14 11 25 10 19 7 20 -44 18 -29 -1 -60 2 -68 7 -8 5 -41 10 -74
11 -33 2 -73 4 -90 4 -16 1 -64 -1 -105 -5 -42 -4 -70 -4 -63 1 7 5 9 14 4 22
-7 10 -9 9 -14 -3z m-467 -367 c0 -6 -4 -7 -10 -4 -5 3 -10 11 -10 16 0 6 5 7
10 4 6 -3 10 -11 10 -16z m-40 -9 c0 -5 -5 -10 -11 -10 -5 0 -7 5 -4 10 3 6 8
10 11 10 2 0 4 -4 4 -10z"/>
<path d="M1764 4905 c4 -11 -2 -15 -20 -15 -13 0 -27 -6 -30 -14 -4 -10 -16
-14 -37 -11 -40 5 -109 -25 -102 -44 5 -11 3 -12 -10 -1 -13 11 -18 11 -28 0
-9 -10 -9 -11 1 -6 6 4 12 2 12 -3 0 -10 -21 -16 -42 -12 -5 0 -8 -6 -8 -15 0
-8 -4 -12 -10 -9 -5 3 -10 -1 -10 -9 0 -9 5 -16 10 -16 6 0 10 -6 10 -14 0
-18 -49 -34 -115 -38 -31 -2 -57 -10 -67 -20 -10 -10 -25 -18 -33 -18 -8 0
-15 -3 -15 -8 0 -4 -15 -14 -32 -21 -18 -8 -39 -21 -47 -28 -8 -8 -22 -11 -34
-7 -18 6 -20 5 -10 -8 10 -12 10 -15 -2 -15 -8 0 -15 4 -15 8 0 5 -7 6 -15 3
-8 -4 -13 -9 -11 -13 2 -3 -2 -11 -9 -18 -11 -10 -15 -10 -18 0 -3 7 -6 4 -6
-6 -1 -10 -6 -15 -12 -12 -6 4 -13 -2 -16 -14 -3 -12 -11 -21 -18 -21 -15 0
-76 -66 -68 -74 4 -3 0 -6 -9 -6 -20 0 -48 -32 -48 -56 0 -11 -11 -31 -25 -46
l-24 -26 35 -9 36 -8 -32 -12 c-24 -9 -29 -9 -22 0 8 9 3 12 -15 14 -19 1 -22
-1 -12 -8 11 -7 11 -9 -2 -9 -21 0 -30 -22 -18 -41 7 -11 9 -11 9 3 0 11 7 16
23 14 34 -3 47 -14 40 -34 -3 -9 8 -1 25 18 17 19 31 38 32 41 0 10 82 90 87
85 2 -2 16 7 30 20 14 13 29 21 34 19 4 -3 10 3 12 12 4 15 5 15 6 -2 1 -16 3
-17 10 -6 11 16 27 20 126 26 47 2 72 0 77 -8 6 -9 8 -8 8 3 0 11 2 12 8 3 5
-8 19 -9 45 -4 24 6 37 5 37 -1 0 -6 12 -8 30 -5 16 4 32 2 35 -3 3 -5 16 -7
29 -4 14 2 31 -3 40 -12 9 -8 21 -12 27 -8 8 4 9 3 5 -4 -10 -16 -22 -15 -41
4 -9 9 -18 14 -22 11 -3 -3 9 -14 26 -25 17 -10 28 -22 24 -26 -4 -4 -1 -11 7
-17 13 -8 13 -11 -2 -20 -19 -10 -25 -39 -9 -39 5 0 8 -8 6 -17 -1 -10 -8 -17
-14 -15 -10 2 -15 -10 -13 -29 1 -3 -9 -5 -21 -5 -12 1 -46 -8 -76 -21 -29
-13 -57 -23 -62 -23 -5 0 -34 -12 -66 -26 -32 -14 -69 -30 -83 -35 -47 -20
-119 -58 -130 -69 -3 -3 -17 -11 -32 -19 -15 -8 -34 -28 -42 -45 -8 -18 -27
-44 -41 -60 -14 -15 -25 -33 -25 -41 0 -8 -4 -16 -9 -19 -17 -11 -35 -126 -19
-126 5 0 6 -4 3 -10 -12 -19 42 -10 61 10 48 51 67 64 117 81 71 24 137 41
161 40 11 0 27 4 36 9 9 5 61 12 116 16 54 3 102 8 106 11 16 9 108 17 200 18
53 0 94 3 91 8 -2 4 5 7 16 7 36 0 171 99 189 139 9 20 21 39 25 42 5 3 8 8 7
10 -1 2 4 18 10 34 10 29 14 38 40 100 8 17 14 35 15 40 2 19 26 68 45 95 11
16 17 35 14 44 -3 9 -1 16 5 16 6 0 11 7 11 16 0 8 -5 12 -11 8 -7 -4 -9 0 -5
13 8 24 -20 83 -39 83 -9 0 -12 6 -9 15 4 8 1 15 -5 15 -12 0 -15 62 -4 74 12
12 14 48 2 40 -8 -4 -9 1 -4 17 4 16 3 20 -3 10 -7 -10 -14 -11 -31 -2 -16 9
-21 9 -21 -1 0 -9 -3 -9 -10 2 -14 21 -12 32 3 24 6 -3 0 4 -14 17 -15 13 -29
32 -33 42 -5 15 -12 17 -41 11 -19 -3 -35 -2 -35 3 0 5 -9 19 -21 31 -11 13
-17 28 -13 35 6 9 4 8 -8 -1 -12 -9 -18 -10 -23 -2 -4 6 -14 9 -22 6 -20 -8
-64 4 -57 15 3 5 -2 9 -11 9 -10 0 -13 -5 -9 -12 5 -7 3 -8 -5 -4 -7 5 -10 14
-7 22 3 8 -1 14 -10 14 -10 0 -14 -6 -10 -15z m231 -165 c3 -6 -1 -7 -9 -4
-18 7 -21 14 -7 14 6 0 13 -4 16 -10z m-415 -599 c0 -5 -11 -16 -25 -25 -18
-12 -30 -13 -50 -6 -34 13 -44 13 -25 -1 12 -8 12 -10 -4 -7 -29 4 -31 27 -4
37 30 12 108 14 108 2z m98 -10 c3 -8 0 -11 -7 -7 -6 4 -11 2 -11 -3 0 -6 -9
-11 -21 -11 -11 0 -17 5 -14 10 3 6 -1 10 -10 10 -9 0 -14 4 -11 9 9 14 69 8
74 -8z m-241 -27 c-3 -3 -12 -4 -19 -1 -8 3 -5 6 6 6 11 1 17 -2 13 -5z m-203
-89 c-4 -8 -11 -15 -16 -15 -6 0 -5 6 2 15 7 8 14 15 16 15 2 0 1 -7 -2 -15z
m-34 -15 c0 -5 -5 -10 -11 -10 -5 0 -7 5 -4 10 3 6 8 10 11 10 2 0 4 -4 4 -10z"/>
<path d="M3190 4900 c-9 -6 -10 -10 -3 -10 6 0 15 5 18 10 8 12 4 12 -15 0z"/>
<path d="M3986 4884 c-5 -13 -1 -14 24 -9 20 4 30 3 30 -5 0 -6 4 -9 10 -5 5
3 7 12 3 20 -7 20 -59 19 -67 -1z"/>
<path d="M1988 4833 c6 -2 10 -9 7 -14 -4 -5 1 -6 10 -2 13 5 14 7 3 14 -7 5
-17 8 -23 8 -5 0 -4 -3 3 -6z"/>
<path d="M957 4473 c-4 -3 -7 -11 -7 -17 0 -6 5 -5 12 2 6 6 9 14 7 17 -3 3
-9 2 -12 -2z"/>
<path d="M5135 4410 c3 -5 8 -10 11 -10 2 0 4 5 4 10 0 6 -5 10 -11 10 -5 0
-7 -4 -4 -10z"/>
<path d="M5135 4380 c-3 -5 -1 -10 4 -10 6 0 11 5 11 10 0 6 -2 10 -4 10 -3 0
-8 -4 -11 -10z"/>
<path d="M4840 4230 c0 -5 5 -10 11 -10 5 0 7 5 4 10 -3 6 -8 10 -11 10 -2 0
-4 -4 -4 -10z"/>
<path d="M1533 4215 c0 -8 4 -12 9 -9 5 3 6 10 3 15 -9 13 -12 11 -12 -6z"/>
<path d="M830 4120 c0 -5 4 -10 9 -10 6 0 13 5 16 10 3 6 -1 10 -9 10 -9 0
-16 -4 -16 -10z"/>
<path d="M4407 3924 c3 -7 9 -14 14 -14 14 0 10 17 -5 23 -10 4 -13 1 -9 -9z"/>
<path d="M2976 3339 c4 -8 -1 -9 -17 -4 -23 7 -23 6 -4 -8 33 -24 72 -29 79
-11 5 13 1 15 -19 10 -18 -5 -25 -2 -25 9 0 8 -5 15 -11 15 -5 0 -7 -5 -3 -11z"/>
<path d="M2873 3320 c-5 -20 -32 -26 -90 -21 -12 1 -24 -3 -28 -9 -3 -5 -17
-10 -31 -10 -13 0 -24 -5 -24 -11 0 -6 -8 -8 -19 -4 -11 3 -25 -1 -34 -10 -9
-8 -19 -15 -23 -15 -4 0 -13 -8 -21 -17 -8 -10 -12 -12 -8 -5 3 6 2 12 -4 12
-5 0 -13 -9 -16 -20 -4 -13 -15 -20 -30 -20 -13 0 -27 -4 -30 -10 -9 -15 -45
-12 -51 5 -4 8 -10 13 -14 10 -12 -8 -40 6 -40 19 0 6 -10 17 -21 25 -20 12
-21 11 -17 -7 5 -16 0 -21 -23 -24 -17 -3 -29 0 -29 6 0 6 -4 5 -9 -3 -5 -7
-14 -10 -20 -7 -6 4 -8 12 -5 18 4 7 2 8 -4 4 -7 -4 -12 -14 -12 -22 0 -10 -9
-13 -35 -8 -28 4 -34 2 -29 -10 7 -19 -34 -42 -49 -27 -7 7 -5 12 6 17 9 3 17
11 17 17 0 7 -4 7 -12 -1 -16 -16 -36 -15 -54 3 -14 13 -13 15 2 15 10 0 15 3
11 6 -3 3 -22 6 -41 6 -20 0 -36 5 -36 10 0 6 -10 8 -21 5 -15 -4 -28 1 -40
16 -10 12 -18 17 -19 10 0 -6 6 -13 13 -16 20 -7 -1 -20 -33 -20 -16 0 -27 -4
-25 -8 3 -4 -3 -5 -14 -2 -13 3 -20 -2 -24 -16 -7 -29 -9 -32 -35 -58 -19 -19
-21 -27 -12 -43 6 -11 10 -26 9 -33 -1 -6 -1 -19 1 -27 1 -11 4 -10 11 5 7 15
8 10 4 -18 -3 -20 -2 -43 2 -50 4 -6 9 -25 11 -42 5 -57 7 -65 15 -66 20 -3
97 34 102 49 2 9 19 25 36 35 l31 17 11 -30 c6 -16 15 -30 19 -30 4 0 5 -8 2
-17 -5 -14 -4 -15 4 -4 7 9 19 11 42 6 25 -6 31 -11 27 -27 -5 -16 -3 -17 10
-6 14 11 15 10 9 -12 -5 -18 -5 -21 3 -11 7 12 13 12 24 3 7 -7 17 -9 20 -5 4
3 7 1 7 -6 0 -14 24 -41 37 -41 4 0 20 -21 35 -46 18 -28 39 -49 58 -55 16 -6
30 -15 30 -20 0 -5 9 -9 20 -9 11 0 20 -7 20 -15 0 -9 9 -15 25 -15 14 0 25
-4 25 -10 0 -16 24 -12 74 15 26 14 52 25 57 25 18 0 46 34 53 64 9 35 39 66
88 89 19 9 40 28 48 42 8 16 22 25 37 25 13 0 23 5 23 11 0 5 4 8 8 5 5 -3 26
-1 47 5 26 7 41 7 48 0 7 -7 16 -7 30 0 10 6 30 9 43 6 13 -2 24 0 24 4 0 5
10 5 23 0 31 -12 88 9 98 37 5 14 5 22 -2 22 -6 0 -3 7 5 16 11 10 14 24 10
41 -4 16 -2 28 7 34 9 6 10 9 2 9 -6 0 -15 -4 -18 -10 -3 -5 -10 -10 -16 -10
-15 0 15 40 31 41 10 0 11 2 3 6 -7 2 -13 14 -13 25 0 17 -3 18 -14 8 -8 -6
-17 -21 -19 -33 -4 -21 -4 -21 -6 2 0 13 -9 30 -18 38 -17 13 -17 14 2 9 11
-3 27 -1 35 4 13 8 12 10 -3 10 -10 0 -16 4 -13 9 3 5 -1 12 -10 15 -24 9 -31
7 -14 -4 13 -9 13 -11 0 -20 -23 -15 -27 -12 -29 23 -1 17 -3 38 -3 45 -1 7
-14 22 -31 34 -20 14 -25 23 -17 28 8 5 9 10 2 14 -6 3 -13 -3 -17 -14 -8 -24
-18 -25 -35 -5 -7 8 -20 15 -29 15 -9 0 -22 5 -27 10 -7 7 -17 3 -32 -11 l-23
-20 6 30 c4 24 2 31 -11 31 -9 0 -18 -9 -21 -20z m-673 -185 c0 -8 -2 -15 -4
-15 -2 0 -6 7 -10 15 -3 8 -1 15 4 15 6 0 10 -7 10 -15z m-343 -27 c-3 -7 -5
-2 -5 12 0 14 2 19 5 13 2 -7 2 -19 0 -25z m418 -42 c-2 -12 -4 -37 -6 -56 -1
-28 -3 -30 -6 -10 -3 14 -12 33 -21 43 -15 17 -14 17 4 12 19 -7 19 -6 0 9
-11 9 -17 19 -13 22 4 4 13 1 22 -6 18 -15 19 -7 4 23 -10 21 -9 21 5 3 9 -10
14 -28 11 -40z m-28 -68 c-3 -8 -6 -5 -6 6 -1 11 2 17 5 13 3 -3 4 -12 1 -19z
m58 -8 c3 -5 -1 -10 -10 -10 -9 0 -13 5 -10 10 3 6 8 10 10 10 2 0 7 -4 10
-10z m42 -272 c-3 -8 -6 -5 -6 6 -1 11 2 17 5 13 3 -3 4 -12 1 -19z"/>
<path d="M2190 3253 c0 -6 -10 -9 -22 -6 -23 4 -23 4 -3 -11 17 -15 20 -15 28
0 5 8 6 18 3 21 -3 4 -6 2 -6 -4z"/>
<path d="M3114 3239 c0 -10 4 -19 9 -19 4 0 5 -5 1 -12 -4 -6 -3 -8 4 -5 5 4
8 16 5 27 -7 27 -19 33 -19 9z"/>
<path d="M2478 3193 c7 -3 16 -2 19 1 4 3 -2 6 -13 5 -11 0 -14 -3 -6 -6z"/>
<path d="M1543 2903 c-15 -5 -18 -33 -4 -33 8 0 25 30 19 35 -2 1 -9 0 -15 -2z"/>
<path d="M1460 2880 c-11 -7 -5 -10 23 -10 20 0 37 5 37 10 0 13 -40 13 -60 0z"/>
<path d="M1520 2851 c0 -12 -39 -21 -46 -10 -10 18 -24 9 -22 -15 2 -27 38
-57 38 -32 0 8 -6 17 -12 20 -7 3 2 5 20 3 28 -3 32 -1 32 20 0 13 -2 23 -5
23 -3 0 -5 -4 -5 -9z"/>
<path d="M1391 2794 c0 -11 3 -14 6 -6 3 7 2 16 -1 19 -3 4 -6 -2 -5 -13z"/>
<path d="M1411 2794 c0 -11 3 -14 6 -6 3 7 2 16 -1 19 -3 4 -6 -2 -5 -13z"/>
<path d="M3985 2670 c3 -5 8 -10 11 -10 2 0 4 5 4 10 0 6 -5 10 -11 10 -5 0
-7 -4 -4 -10z"/>
<path d="M4070 2641 c0 -8 -8 -11 -20 -8 -11 3 -23 1 -26 -4 -8 -13 6 -50 17
-44 5 4 9 -4 9 -17 0 -17 2 -20 9 -9 10 16 -8 53 -21 45 -4 -3 -8 0 -8 5 0 15
30 14 31 -1 0 -7 5 -2 10 11 5 13 7 26 4 29 -3 3 -5 0 -5 -7z"/>
<path d="M4079 2598 c-11 -38 8 -78 38 -78 16 0 17 -12 1 -29 -11 -10 -8 -17
14 -36 19 -16 26 -29 21 -41 -4 -12 -3 -15 6 -10 8 5 12 3 10 -5 -4 -35 2 -49
22 -49 35 0 65 42 37 53 -9 3 -7 10 7 21 20 17 20 17 -1 7 -24 -12 -35 -6 -27
15 3 8 -5 18 -21 24 -18 6 -28 20 -32 40 -4 16 -11 30 -17 30 -5 0 -20 11 -32
24 -20 22 -21 25 -7 29 15 4 15 5 0 6 -10 0 -18 0 -19 -1z m106 -148 c3 -5 2
-10 -4 -10 -5 0 -13 5 -16 10 -3 6 -2 10 4 10 5 0 13 -4 16 -10z"/>
<path d="M1147 2383 c-4 -3 -7 -11 -7 -17 0 -6 5 -5 12 2 6 6 9 14 7 17 -3 3
-9 2 -12 -2z"/>
<path d="M2750 2372 c0 -5 6 -14 13 -22 6 -7 -1 -6 -17 4 -24 16 -28 16 -23 3
5 -13 -3 -15 -41 -15 -26 1 -54 -1 -62 -4 -8 -3 -12 -3 -7 -1 4 3 7 8 7 13 0
9 -56 8 -66 -3 -11 -11 -36 -8 -29 3 4 6 -6 10 -22 10 l-28 0 24 -13 c26 -13
40 -37 22 -37 -6 0 -11 4 -11 9 0 5 -7 11 -14 14 -9 4 -13 1 -10 -6 3 -8 -5
-13 -21 -15 -29 -2 -32 5 -7 24 15 12 13 13 -13 3 -16 -5 -35 -15 -43 -21 -10
-9 -12 -8 -10 3 2 9 -4 13 -16 11 -10 -2 -15 1 -12 6 3 6 -1 9 -10 8 -8 -1
-20 -9 -25 -17 -5 -8 -9 -9 -9 -4 0 10 -8 13 -55 17 -36 4 -130 -14 -137 -26
-6 -8 -11 -7 -18 4 -7 10 -10 11 -10 2 0 -7 -12 -12 -30 -12 -16 0 -44 0 -62
0 -17 0 -34 -4 -37 -9 -4 -5 -37 -12 -75 -15 -38 -2 -72 -8 -75 -13 -3 -4 -12
-9 -19 -11 -7 -1 -25 -10 -39 -19 -14 -10 -35 -19 -47 -20 -11 -2 -23 -7 -26
-11 -3 -4 -20 -8 -37 -7 -18 0 -33 -3 -33 -6 0 -4 -11 -9 -24 -11 -15 -3 -23
-1 -20 6 3 7 -4 12 -15 12 -14 0 -26 -15 -42 -48 -12 -26 -27 -48 -32 -48 -5
0 -7 -7 -3 -15 3 -8 1 -15 -4 -15 -5 0 -12 -9 -15 -20 -4 -11 -11 -18 -16 -15
-5 3 -6 -1 -3 -9 4 -11 0 -16 -10 -16 -9 0 -17 -3 -17 -7 -1 -5 -3 -18 -4 -29
-1 -12 -6 -28 -11 -35 -5 -8 -7 -21 -6 -31 2 -9 -7 -23 -20 -32 -15 -11 -17
-16 -8 -16 12 0 12 -2 2 -8 -18 -12 13 -71 44 -82 13 -5 24 -15 24 -21 0 -6
25 -35 55 -64 30 -28 55 -57 55 -63 0 -7 5 -12 11 -12 5 0 8 -4 5 -8 -7 -12
31 -42 53 -42 10 0 21 -7 25 -15 3 -9 12 -12 22 -8 13 5 15 3 9 -7 -6 -10 -4
-12 9 -7 10 4 24 1 32 -7 10 -11 11 -15 1 -19 -6 -2 11 -2 38 -1 32 2 58 -3
73 -12 13 -8 29 -13 35 -11 7 2 24 -2 38 -9 46 -23 229 -54 381 -65 141 -10
376 -7 428 5 35 9 89 18 119 20 15 1 31 4 36 8 6 3 24 4 40 3 17 -1 35 1 40 5
6 4 17 8 25 8 43 3 94 12 126 22 19 7 42 9 50 6 17 -7 59 28 51 42 -4 5 0 9 7
9 8 0 12 -6 10 -12 -8 -21 237 -10 296 12 8 4 19 5 24 4 4 -1 19 10 32 24 15
16 46 32 82 41 39 10 65 24 83 44 14 16 29 27 33 23 9 -9 47 28 39 40 -3 5 -2
7 4 4 5 -3 46 29 91 72 59 56 82 85 82 102 0 43 3 59 13 59 6 0 -1 10 -15 23
-14 13 -24 31 -22 41 2 12 -1 14 -10 7 -19 -16 -51 -6 -54 17 -2 13 -17 28
-38 38 -23 11 -34 23 -34 38 0 17 -2 18 -10 6 -5 -8 -10 -10 -10 -4 0 16 -79
54 -97 47 -11 -4 -14 -1 -11 8 6 17 -18 43 -32 34 -5 -3 -10 -1 -10 6 0 8 -4
8 -13 1 -16 -13 -57 -12 -57 2 0 5 -3 6 -7 3 -3 -4 -12 -2 -20 4 -10 9 -17 8
-30 -2 -15 -12 -16 -12 -10 4 4 11 1 17 -9 17 -9 0 -12 5 -8 11 5 8 -3 10 -26
7 -38 -6 -111 10 -122 26 -5 7 -8 6 -8 -4 0 -13 -1 -13 -10 0 -9 13 -11 13
-20 0 -7 -10 -10 -11 -10 -2 0 8 -8 10 -24 6 -13 -3 -27 -1 -30 5 -4 6 -18 11
-32 11 -13 0 -24 4 -24 8 0 5 -18 8 -40 8 -27 -1 -41 4 -44 14 -3 11 -4 10 -5
-3 -1 -11 -5 -15 -13 -11 -11 7 -36 11 -111 18 -21 2 -47 12 -58 22 -17 15
-22 16 -29 4 -10 -17 -101 -20 -107 -3 -5 13 -33 26 -33 15z m54 -175 c3 4 12
-1 19 -9 9 -12 29 -16 79 -15 36 1 64 5 62 9 -3 4 0 8 5 8 6 0 11 -4 11 -9 0
-4 11 -7 24 -6 13 2 36 -3 50 -10 15 -8 28 -10 31 -4 4 5 20 -5 37 -22 20 -19
38 -29 50 -26 10 3 16 1 13 -3 -3 -5 3 -8 14 -7 12 1 17 6 13 16 -4 11 1 13
21 9 15 -3 27 -1 27 4 0 5 6 3 14 -5 8 -8 28 -13 45 -12 18 1 31 -3 31 -10 0
-6 17 -27 39 -45 21 -19 37 -40 34 -47 -3 -7 0 -13 6 -13 6 0 8 -8 4 -17 -6
-17 -5 -17 14 0 21 18 22 18 33 0 10 -16 11 -16 6 0 -7 24 16 22 34 -3 8 -11
19 -20 25 -20 6 0 16 -14 22 -30 6 -17 8 -28 3 -25 -4 3 -11 -6 -14 -20 -5
-21 -11 -23 -43 -20 -20 2 -42 10 -49 19 -6 9 -16 16 -23 16 -6 0 -11 7 -11
15 0 8 -4 15 -10 15 -5 0 -10 5 -10 11 0 5 5 7 10 4 6 -3 10 -1 10 5 0 16 -28
24 -43 12 -20 -17 -87 -8 -144 19 -29 13 -53 27 -53 31 0 17 -71 40 -104 34
-40 -8 -163 31 -210 65 l-28 21 -28 -31 c-33 -36 -25 -35 -198 -17 -98 11
-139 19 -153 32 -10 9 -19 20 -19 25 0 9 55 30 92 36 23 3 27 1 22 -14 -6 -15
-4 -15 9 2 9 11 17 16 17 10 0 -5 4 -4 9 3 4 7 16 13 27 13 10 -1 28 -1 39 -1
62 -1 95 2 101 11 4 7 10 6 18 0 7 -6 16 -8 20 -4z m-600 -58 c5 -4 15 -1 23
7 12 12 18 12 30 2 11 -9 16 -9 23 2 6 10 12 11 22 3 8 -7 33 -8 66 -3 29 3
55 4 57 0 10 -16 -9 -51 -31 -55 -13 -3 -34 -7 -47 -10 -13 -2 -75 -5 -137 -6
-108 -2 -148 -10 -200 -40 -24 -14 -63 -30 -84 -35 -10 -2 -21 -6 -24 -9 -3
-2 -11 3 -19 13 -8 9 -12 12 -9 6 3 -7 0 -27 -6 -45 -12 -34 -12 -34 -19 -9
-5 17 -7 19 -8 7 -1 -10 -11 -28 -22 -40 -12 -12 -18 -15 -14 -7 6 12 5 13 -6
3 -7 -7 -23 -13 -36 -13 -17 0 -21 -4 -16 -17 4 -11 3 -14 -5 -9 -16 9 -15 -7
0 -22 8 -8 9 -12 1 -12 -6 0 -18 -6 -26 -14 -22 -22 -57 -9 -57 21 0 13 4 22
10 18 5 -3 15 7 23 21 l14 27 -1 -30 c0 -17 -4 -29 -7 -27 -3 2 -6 -3 -6 -11
0 -16 7 -19 22 -7 11 7 14 76 4 86 -11 12 4 68 20 73 9 2 24 9 33 14 10 5 24
6 32 3 8 -3 17 -1 20 5 4 6 13 8 21 4 9 -3 15 1 15 10 0 23 67 54 83 38 17
-17 31 -13 17 4 -9 11 -9 15 -1 15 7 0 9 5 5 12 -4 7 -3 8 5 4 6 -4 9 -12 6
-17 -4 -5 1 -9 9 -9 9 0 16 5 16 12 0 6 3 9 6 6 8 -8 96 22 112 38 13 14 69 9
86 -7z"/>
<path d="M4180 2330 c0 -5 5 -10 10 -10 6 0 10 -9 10 -20 0 -14 -6 -20 -16
-18 -10 2 -19 -4 -21 -12 -3 -9 -1 -11 4 -4 5 7 16 6 33 -3 25 -12 25 -13 3
-13 -13 0 -23 -4 -23 -10 0 -5 6 -10 14 -10 8 0 14 -11 14 -25 0 -14 7 -31 16
-38 9 -7 18 -25 20 -40 1 -15 6 -30 9 -34 4 -3 7 -19 7 -34 0 -15 7 -34 15
-42 11 -12 12 -17 2 -20 -12 -5 -10 -6 20 -7 14 -1 16 45 7 155 -4 52 -11 74
-26 87 -11 10 -17 22 -12 29 4 7 -1 18 -12 26 -18 13 -17 14 11 8 l30 -6 -32
15 c-18 8 -33 20 -33 26 0 5 -11 10 -25 10 -14 0 -25 -4 -25 -10z"/>
<path d="M4240 2329 c0 -5 5 -7 10 -4 6 3 10 8 10 11 0 2 -4 4 -10 4 -5 0 -10
-5 -10 -11z"/>
<path d="M1110 2305 c0 -9 6 -12 15 -9 8 4 15 7 15 9 0 2 -7 5 -15 9 -9 3 -15
0 -15 -9z"/>
<path d="M5512 2260 c0 -14 2 -19 5 -12 2 6 2 18 0 25 -3 6 -5 1 -5 -13z"/>
<path d="M1078 2263 c6 -2 12 -19 13 -36 0 -27 2 -29 8 -12 10 23 -4 55 -22
54 -9 0 -9 -2 1 -6z"/>
<path d="M1117 2252 c3 -7 9 -10 12 -5 3 4 10 11 15 15 4 4 -1 6 -12 5 -12 -1
-18 -6 -15 -15z"/>
<path d="M5760 2260 c0 -5 5 -10 11 -10 5 0 7 5 4 10 -3 6 -8 10 -11 10 -2 0
-4 -4 -4 -10z"/>
<path d="M5765 2221 c4 -9 -3 -22 -16 -32 -21 -16 -21 -16 9 -11 17 2 33 11
36 19 4 8 2 11 -5 7 -7 -4 -9 0 -5 13 4 14 2 20 -9 20 -10 0 -14 -6 -10 -16z"/>
<path d="M108 2209 c-10 -5 -18 -15 -18 -20 0 -6 4 -8 9 -4 6 3 6 -7 0 -27 -6
-23 -5 -34 4 -40 25 -16 35 -7 39 33 5 50 -9 73 -34 58z"/>
<path d="M1260 2130 c0 -5 5 -10 10 -10 6 0 10 5 10 10 0 6 -4 10 -10 10 -5 0
-10 -4 -10 -10z"/>
<path d="M1200 2100 c0 -5 5 -10 11 -10 5 0 7 5 4 10 -3 6 -8 10 -11 10 -2 0
-4 -4 -4 -10z"/>
<path d="M1243 2093 c-7 -2 -13 -9 -13 -14 0 -6 5 -7 10 -4 12 8 40 -12 40
-28 0 -7 -4 -7 -12 1 -26 26 -28 15 -14 -65 7 -37 10 -41 22 -29 17 18 18 27
2 24 -7 -2 -14 8 -15 22 -2 22 -2 23 6 5 8 -17 10 -18 10 -2 1 9 5 17 10 17
12 0 0 52 -15 67 -7 7 -14 13 -16 12 -2 0 -9 -3 -15 -6z"/>
<path d="M4060 2096 c0 -2 7 -7 16 -10 8 -3 12 -2 9 4 -6 10 -25 14 -25 6z"/>
<path d="M4060 2060 c0 -6 4 -9 9 -6 5 4 12 1 14 -4 3 -6 4 -5 3 2 -3 15 -26
23 -26 8z"/>
<path d="M0 2051 c0 -13 29 -41 43 -41 7 0 6 4 -3 10 -21 14 5 13 31 0 13 -7
19 -7 19 0 0 5 3 9 8 9 4 -1 13 -1 21 0 22 2 2 16 -22 17 -12 0 -39 4 -59 8
-23 4 -38 3 -38 -3z"/>
<path d="M3901 2034 c0 -11 3 -14 6 -6 3 7 2 16 -1 19 -3 4 -6 -2 -5 -13z"/>
<path d="M5511 2034 c0 -11 3 -14 6 -6 3 7 2 16 -1 19 -3 4 -6 -2 -5 -13z"/>
<path d="M5478 2023 c7 -3 16 -2 19 1 4 3 -2 6 -13 5 -11 0 -14 -3 -6 -6z"/>
<path d="M5464 2002 c4 -3 14 -7 22 -8 9 -1 13 0 10 4 -4 3 -14 7 -22 8 -9 1
-13 0 -10 -4z"/>
<path d="M6080 1999 c0 -5 5 -7 10 -4 6 3 10 8 10 11 0 2 -4 4 -10 4 -5 0 -10
-5 -10 -11z"/>
<path d="M1308 1948 c-28 -10 -37 -31 -18 -43 6 -3 10 2 10 13 0 14 6 19 24
17 18 -2 23 1 19 11 -3 8 -6 14 -7 13 0 0 -13 -5 -28 -11z"/>
<path d="M5571 1834 c0 -11 3 -14 6 -6 3 7 2 16 -1 19 -3 4 -6 -2 -5 -13z"/>
<path d="M5510 1831 c0 -6 4 -13 10 -16 6 -3 7 1 4 9 -7 18 -14 21 -14 7z"/>
<path d="M5495 1738 c-8 -21 2 -41 17 -32 7 5 9 -2 4 -20 -4 -16 -2 -26 4 -26
6 0 9 -4 6 -9 -3 -5 1 -12 10 -15 9 -4 13 -2 8 5 -4 8 1 9 17 4 19 -5 21 -4 9
4 -13 10 -13 11 0 11 13 0 13 1 0 10 -11 7 -11 10 -2 10 7 0 10 5 7 10 -3 6
-14 10 -23 10 -10 0 -13 -3 -7 -8 18 -13 16 -34 -2 -30 -10 2 -17 11 -15 21 1
9 -4 29 -12 44 -12 24 -16 25 -21 11z"/>
<path d="M5520 1740 c0 -5 5 -10 10 -10 6 0 10 5 10 10 0 6 -4 10 -10 10 -5 0
-10 -4 -10 -10z"/>
<path d="M5504 1584 c3 -9 6 -22 6 -30 0 -9 5 -13 13 -9 6 4 4 0 -7 -9 -10 -8
-15 -19 -11 -25 3 -6 1 -11 -5 -11 -6 0 0 -10 13 -22 18 -17 22 -28 16 -43 -5
-14 -8 -15 -9 -5 -1 10 -5 7 -12 -7 -6 -13 -15 -23 -21 -23 -5 0 -7 -7 -3 -15
3 -8 0 -15 -7 -16 -7 0 -3 -4 8 -9 17 -7 17 -9 3 -9 -25 -1 -22 -18 4 -24 26
-7 23 -9 33 22 5 18 4 22 -6 15 -7 -4 -4 6 8 22 11 16 22 47 25 68 3 31 1 40
-14 44 -10 2 -18 11 -18 18 0 12 13 17 45 17 6 0 9 15 6 36 -4 26 -6 30 -9 13
-2 -12 -7 -20 -12 -17 -5 3 -7 12 -3 20 4 11 -2 15 -22 15 -21 0 -26 -4 -21
-16z"/>
<path d="M3595 1570 c-3 -5 -1 -10 4 -10 6 0 11 5 11 10 0 6 -2 10 -4 10 -3 0
-8 -4 -11 -10z"/>
<path d="M3418 1493 c7 -3 16 -2 19 1 4 3 -2 6 -13 5 -11 0 -14 -3 -6 -6z"/>
<path d="M5820 1340 c-14 -4 -19 -8 -12 -9 6 -1 12 -9 13 -18 0 -10 3 -13 5
-7 3 6 16 9 30 6 24 -4 43 9 44 31 0 9 -47 8 -80 -3z"/>
<path d="M5483 1313 c9 -2 17 -8 17 -13 0 -5 -8 -6 -17 -3 -15 6 -16 5 -3 -9
13 -13 16 -14 23 -2 11 18 0 34 -21 33 -15 -1 -15 -2 1 -6z"/>
<path d="M5450 1243 c0 -7 5 -15 10 -18 6 -4 8 -14 6 -23 -3 -10 -1 -24 4 -32
7 -11 10 -8 10 15 -1 17 -7 39 -15 49 -8 11 -15 15 -15 9z"/>
<path d="M5441 1163 c-1 -24 14 -39 24 -23 3 5 2 10 -4 10 -5 0 -12 8 -14 18
-4 13 -5 12 -6 -5z"/>
<path d="M5435 1102 c-6 -4 -16 -19 -22 -34 -8 -18 -18 -26 -30 -24 -10 2 -24
-3 -32 -11 -11 -12 -10 -14 5 -11 14 2 18 -2 16 -16 -2 -11 1 -15 8 -11 6 4 8
16 5 28 -4 15 -3 18 3 9 7 -11 11 -10 16 4 8 22 21 9 21 -23 1 -23 0 -23 -12
-7 -7 10 -13 14 -14 8 -3 -41 -10 -68 -19 -74 -6 -4 -8 -14 -5 -22 4 -9 2 -19
-4 -23 -6 -3 -11 -15 -11 -26 0 -11 5 -17 10 -14 6 3 10 1 10 -4 0 -6 -4 -11
-10 -11 -5 0 -10 -9 -10 -20 0 -14 -7 -20 -22 -21 -22 -1 -22 -1 2 -9 22 -7
21 -8 -15 -10 l-40 -3 40 -7 40 -7 -40 -3 c-23 -1 -32 -4 -20 -7 11 -3 25 -9
30 -15 7 -6 1 -7 -16 -3 -32 8 -39 -1 -32 -38 4 -21 8 -25 14 -15 6 9 9 7 9
-10 0 -22 -18 -26 -32 -7 -4 6 -8 2 -8 -7 0 -11 7 -18 18 -18 14 0 15 -2 2
-10 -9 -5 -18 -6 -24 0 -6 6 -14 -1 -23 -17 -17 -33 -17 -53 1 -53 8 0 14 -10
14 -25 0 -13 -4 -23 -8 -22 -13 3 -60 -56 -60 -75 0 -10 -4 -18 -10 -18 -19 0
-10 -27 14 -40 22 -11 33 -50 14 -50 -4 0 -8 -9 -8 -20 0 -11 -4 -20 -9 -20
-5 0 -7 -9 -4 -20 4 -13 0 -20 -9 -20 -11 0 -14 8 -11 28 2 16 -2 10 -11 -15
-17 -54 -39 -76 -55 -60 -9 9 -11 8 -6 -5 4 -10 13 -18 21 -18 7 0 11 -6 8
-14 -3 -8 -1 -17 5 -21 11 -6 14 4 12 40 l-1 20 9 -20 c7 -14 10 -15 10 -5 1
13 3 13 10 1 11 -18 -5 -55 -20 -46 -5 4 -9 2 -9 -3 0 -5 -7 -9 -15 -9 -8 0
-15 5 -15 11 0 6 -9 17 -20 24 -12 7 -20 8 -20 2 0 -5 3 -10 8 -10 4 0 12 -11
18 -24 10 -21 9 -26 -5 -31 -14 -6 -13 -8 4 -15 l20 -9 -20 0 c-17 -1 -17 -3
-5 -11 12 -8 11 -10 -7 -10 -12 0 -23 -5 -25 -12 -3 -7 -17 -12 -33 -13 -16 0
-30 -5 -32 -12 -3 -9 88 -12 378 -13 211 0 380 2 377 6 -4 3 -3 17 2 30 7 19
6 24 -5 24 -8 0 -14 -3 -14 -7 3 -20 -2 -34 -11 -28 -5 3 -10 1 -10 -4 0 -6
-6 -11 -13 -11 -8 0 -14 7 -14 15 0 8 9 15 19 15 10 0 18 7 18 15 0 9 9 15 21
15 18 0 19 2 5 15 -8 8 -22 12 -30 9 -20 -8 -36 32 -26 66 4 14 3 36 -1 49 -5
12 -7 27 -3 32 3 5 -8 9 -24 9 -18 0 -32 -6 -36 -16 -9 -23 -7 -34 4 -34 6 0
10 6 10 14 0 8 7 16 15 20 10 3 15 -1 15 -13 0 -36 -11 -50 -36 -45 -17 3 -24
0 -24 -11 0 -9 -4 -14 -9 -11 -10 7 -21 -17 -21 -42 1 -15 2 -15 11 0 5 10 17
18 25 18 11 0 13 6 9 19 -4 15 -1 19 12 16 10 -1 24 3 32 9 12 9 12 8 3 -11
-8 -15 -9 -30 -2 -47 8 -21 7 -24 -8 -19 -15 6 -15 5 -3 -10 7 -9 9 -17 3 -17
-5 0 -17 11 -26 25 -9 14 -21 23 -27 20 -5 -4 -7 -10 -4 -15 3 -5 1 -11 -4
-14 -5 -4 -12 -2 -16 4 -4 6 -10 8 -15 5 -5 -3 -3 15 4 40 10 33 11 45 3 45
-7 0 -12 16 -12 40 0 25 5 40 13 40 6 0 12 4 12 10 0 5 -5 9 -12 7 -7 -1 -13
12 -15 31 -1 18 2 32 8 32 6 0 9 -7 5 -15 -6 -16 9 -21 18 -6 3 5 8 26 11 47
3 27 2 34 -5 24 -8 -13 -10 -12 -10 3 0 18 17 22 39 8 9 -6 10 -11 2 -15 -16
-10 -14 -26 4 -26 9 0 15 9 15 23 -1 27 -26 62 -34 48 -3 -5 -22 -8 -41 -5
-28 3 -33 1 -28 -12 4 -10 8 -12 13 -5 3 7 11 -4 17 -24 13 -41 -6 -50 -26
-12 -6 12 -10 15 -7 6 3 -12 -3 -18 -22 -22 -33 -6 -39 -2 -22 18 11 13 15 13
23 3 6 -10 7 -9 4 4 -3 9 -1 19 6 22 7 2 4 5 -5 5 -12 1 -16 7 -12 19 5 13 4
14 -4 3 -6 -8 -17 -11 -27 -8 -10 5 -14 3 -9 -5 4 -6 3 -8 -4 -5 -6 5 -8 0 -5
-13 3 -11 9 -17 14 -14 5 3 9 1 9 -4 0 -13 -29 -24 -42 -16 -5 3 -7 13 -4 21
4 9 -3 23 -15 34 -24 21 -19 25 12 8 17 -9 21 -6 30 21 10 29 12 29 25 13 7
-10 14 -14 14 -9 0 5 6 3 14 -4 12 -9 15 -8 14 7 -1 10 2 39 7 65 6 41 5 47
-13 52 -11 4 -27 22 -37 41 -9 19 -19 35 -24 35 -4 0 -16 7 -27 15 -17 13 -16
14 14 5 19 -5 32 -5 32 1 0 5 -7 9 -15 9 -16 0 -18 12 -9 59 5 24 11 30 24 26
10 -3 21 -1 25 5 3 5 -1 10 -10 10 -9 0 -13 5 -10 11 4 6 13 8 21 5 10 -4 14
3 14 22 0 21 2 24 10 12 5 -8 10 -10 10 -5 0 6 -4 17 -9 24 -8 12 -11 9 -16
-12 -4 -16 -14 -27 -24 -26 -10 0 -11 2 -3 6 14 5 17 63 3 63 -5 0 -12 -10
-14 -22 -3 -13 -3 -4 -2 19 1 24 -2 44 -8 46 -6 2 3 10 20 19 25 13 30 13 26
2 -3 -9 1 -14 11 -14 11 0 16 7 14 18 -2 13 3 16 25 14 19 -2 27 1 27 11 0 9
3 17 8 20 4 2 1 2 -7 0 -8 -2 -19 2 -24 9 -6 9 -7 8 -3 -4 3 -10 1 -18 -4 -18
-6 0 -10 5 -10 11 0 8 -4 8 -14 0 -11 -9 -15 -6 -21 16 -4 16 -9 23 -12 17 -5
-14 -43 -6 -43 8 0 5 5 6 10 3 6 -3 10 1 10 9 0 9 -6 13 -15 10 -10 -4 -13 1
-12 22 2 28 -10 39 -28 26z m55 -100 c0 -5 -7 -9 -15 -9 -8 0 -12 4 -9 9 3 4
9 8 15 8 5 0 9 -4 9 -8z m-30 -196 c0 -3 -4 -8 -10 -11 -5 -3 -10 -1 -10 4 0
6 5 11 10 11 6 0 10 -2 10 -4z m-18 -48 c-7 -7 -12 -8 -12 -2 0 14 12 26 19
19 2 -3 -1 -11 -7 -17z m-132 -44 c0 -8 -5 -12 -10 -9 -6 4 -8 11 -5 16 9 14
15 11 15 -7z m131 -7 c-10 -9 -11 -8 -5 6 3 10 9 15 12 12 3 -3 0 -11 -7 -18z
m-161 -119 c0 -4 -7 -8 -15 -8 -8 0 -15 4 -15 8 0 5 7 9 15 9 8 0 15 -4 15 -9z
m210 -8 c0 -5 -5 -10 -11 -10 -5 0 -7 5 -4 10 3 6 8 10 11 10 2 0 4 -4 4 -10z
m40 -20 c0 -5 -2 -10 -4 -10 -3 0 -8 5 -11 10 -3 6 -1 10 4 10 6 0 11 -4 11
-10z m-36 -20 c-5 19 -3 22 5 14 7 -7 9 -22 5 -38 l-7 -28 -18 29 c-25 38 -24
51 2 22 l20 -24 -7 25z m-28 -50 c0 -12 -4 -16 -9 -11 -5 5 -6 14 -3 20 10 15
12 14 12 -9z m-205 -26 c12 -15 11 -16 -9 -10 -13 5 -22 3 -22 -3 0 -6 5 -11
10 -11 6 0 10 -5 10 -11 0 -8 -5 -7 -15 1 -9 7 -19 10 -22 6 -4 -4 -2 -11 6
-15 10 -6 8 -10 -6 -16 -17 -7 -17 -8 2 -15 16 -7 17 -9 3 -9 -19 -1 -37 21
-21 26 6 2 9 12 6 22 -4 17 20 51 36 51 5 0 15 -7 22 -16z m249 -64 c0 -5 -4
-10 -10 -10 -5 0 -10 5 -10 10 0 6 5 10 10 10 6 0 10 -4 10 -10z m28 -64 c-10
-7 -19 -22 -19 -32 -1 -19 -1 -19 -6 0 -4 15 -7 16 -14 5 -7 -11 -9 -9 -9 8 0
22 8 28 44 30 19 2 20 1 4 -11z m-78 -4 c0 -5 -7 -9 -15 -9 -8 0 -12 4 -9 9 3
4 9 8 15 8 5 0 9 -4 9 -8z m17 -24 c-3 -8 -6 -5 -6 6 -1 11 2 17 5 13 3 -3 4
-12 1 -19z m52 -92 c1 -32 -12 -9 -15 26 -2 26 -1 29 6 13 5 -11 9 -29 9 -39z
m-4 -47 c-4 -6 1 -17 11 -24 16 -12 17 -14 3 -15 -25 0 -41 24 -27 38 15 15
21 15 13 1z m0 -59 c3 -5 1 -10 -4 -10 -6 0 -11 5 -11 10 0 6 2 10 4 10 3 0 8
-4 11 -10z m97 -42 c-7 -7 -12 -8 -12 -2 0 14 12 26 19 19 2 -3 -1 -11 -7 -17z"/>
<path d="M5370 969 c0 -5 5 -7 10 -4 6 3 10 8 10 11 0 2 -4 4 -10 4 -5 0 -10
-5 -10 -11z"/>
<path d="M5309 908 c7 -10 17 -16 21 -13 5 3 11 -1 13 -7 3 -7 6 -2 6 11 1 18
-2 21 -12 12 -10 -8 -17 -7 -27 2 -12 10 -12 9 -1 -5z"/>
<path d="M5567 823 c-10 -10 -8 -53 2 -53 6 0 13 5 16 10 3 6 1 10 -6 10 -6 0
-9 8 -6 20 5 21 4 24 -6 13z"/>
<path d="M6080 816 c0 -2 8 -10 18 -17 15 -13 16 -12 3 4 -13 16 -21 21 -21
13z"/>
<path d="M5610 770 c-13 -8 -12 -10 3 -10 9 0 17 5 17 10 0 12 -1 12 -20 0z"/>
<path d="M5518 713 c-3 -13 -2 -26 4 -29 5 -3 1 -12 -9 -20 -16 -13 -15 -13
10 -2 15 6 23 14 18 17 -5 3 -11 17 -13 31 -3 25 -3 25 -10 3z"/>
<path d="M6400 679 c0 -5 5 -7 10 -4 6 3 10 8 10 11 0 2 -4 4 -10 4 -5 0 -10
-5 -10 -11z"/>
<path d="M5646 657 c3 -10 9 -15 12 -12 3 3 0 11 -7 18 -10 9 -11 8 -5 -6z"/>
<path d="M5911 654 c0 -11 3 -14 6 -6 3 7 2 16 -1 19 -3 4 -6 -2 -5 -13z"/>
<path d="M5532 620 c0 -14 2 -19 5 -12 2 6 2 18 0 25 -3 6 -5 1 -5 -13z"/>
<path d="M5670 625 c-7 -9 -8 -15 -2 -15 5 0 12 7 16 15 3 8 4 15 2 15 -2 0
-9 -7 -16 -15z"/>
<path d="M5700 622 c0 -6 7 -18 17 -27 14 -14 14 -18 2 -26 -9 -5 -10 -9 -2
-9 6 0 19 7 27 16 18 18 21 28 5 19 -5 -4 -19 3 -30 16 -10 12 -19 17 -19 11z"/>
<path d="M6376 617 c3 -10 9 -15 12 -12 3 3 0 11 -7 18 -10 9 -11 8 -5 -6z"/>
<path d="M6010 594 c0 -14 4 -23 9 -20 5 3 7 15 4 26 -7 28 -13 25 -13 -6z"/>
<path d="M6396 595 c-3 -8 -1 -15 4 -15 14 0 12 -44 -2 -58 -8 -8 -9 -15 -3
-20 12 -8 12 -33 0 -87 -5 -22 -8 -48 -6 -59 2 -15 -2 -17 -23 -12 -15 4 -26
2 -26 -4 0 -5 9 -10 19 -10 14 0 18 -5 14 -20 -6 -23 -23 -27 -23 -5 0 8 -9
15 -21 15 -11 0 -18 -4 -15 -8 2 -4 -4 -8 -14 -9 -14 -1 -17 3 -13 15 6 14 5
15 -9 2 -15 -14 -15 -16 3 -24 10 -5 19 -16 19 -25 1 -22 27 -55 34 -42 3 5 2
11 -4 13 -6 2 -12 13 -14 25 -4 16 -1 20 10 16 8 -3 13 -12 10 -19 -3 -8 1
-14 9 -14 8 0 15 7 15 15 0 8 5 15 10 15 16 0 12 -27 -5 -34 -8 -3 -15 -13
-15 -21 0 -31 -44 -13 -55 22 -13 40 -16 43 -51 49 -16 3 -32 11 -36 17 -4 7
-8 8 -8 2 0 -22 18 -36 48 -38 18 -1 32 -5 32 -9 0 -5 -4 -8 -10 -8 -5 0 -6
-7 -3 -17 4 -11 3 -14 -5 -9 -7 4 -12 14 -12 22 0 8 -7 14 -16 14 -11 0 -14
-6 -8 -22 3 -13 3 -20 -1 -16 -8 8 -29 -10 -38 -32 -4 -10 -6 -8 -6 6 -1 23
-24 48 -34 37 -4 -3 -7 0 -7 8 0 8 -9 15 -20 16 -14 1 -20 -4 -20 -18 0 -10
-5 -19 -11 -19 -6 0 -9 9 -6 20 3 11 1 20 -5 20 -5 0 -6 5 -3 10 3 6 1 10 -6
10 -6 0 -9 -8 -6 -20 3 -11 1 -20 -4 -20 -5 0 -9 5 -9 11 0 5 -5 7 -10 4 -7
-4 -3 -14 10 -25 11 -9 20 -22 20 -29 0 -20 -19 -12 -37 17 -10 15 -24 32 -32
38 -23 18 -3 34 45 34 42 0 45 2 39 21 -5 16 -4 19 5 14 10 -6 12 2 6 34 -4
28 -3 40 4 36 5 -3 10 -15 10 -26 0 -27 16 -16 28 21 9 24 8 30 -3 30 -9 0
-12 -6 -9 -15 4 -8 2 -15 -4 -15 -6 0 -12 5 -14 12 -3 7 -12 9 -22 5 -13 -5
-15 -11 -6 -26 13 -25 13 -44 0 -36 -6 4 -10 -5 -10 -19 0 -22 -4 -26 -30 -26
-17 0 -30 5 -30 13 0 8 -4 7 -10 -3 -8 -12 -10 -12 -11 5 0 14 -3 11 -10 -10
-5 -16 -8 -38 -5 -47 2 -11 -1 -15 -10 -11 -8 3 -14 0 -14 -6 0 -6 5 -11 10
-11 6 0 10 -5 10 -11 0 -6 -8 -8 -19 -4 -17 5 -18 2 -11 -30 4 -20 4 -35 -1
-35 -5 0 -9 5 -9 10 0 6 -6 10 -12 10 -8 -1 -5 -8 7 -18 11 -9 20 -23 21 -29
4 -48 4 -49 14 -33 6 9 5 17 -3 23 -7 5 -3 6 10 2 20 -5 21 -4 10 19 -7 14
-15 26 -19 26 -5 0 -8 7 -8 15 0 8 5 15 10 15 6 0 10 -7 10 -15 0 -8 5 -15 11
-15 5 0 7 -5 4 -10 -4 -6 -2 -17 5 -25 7 -9 8 -15 1 -20 -6 -3 -15 -14 -21
-24 -7 -15 -4 -20 16 -30 24 -10 25 -10 18 11 -3 13 -3 20 1 15 5 -4 9 -15 10
-25 3 -41 28 -60 83 -60 28 -1 52 4 52 9 0 6 5 7 11 3 6 -3 15 0 20 7 7 11 9
10 9 -3 0 -16 12 -18 115 -18 l115 0 0 305 c0 275 -5 338 -24 290z m-16 -375
c0 -5 -5 -10 -11 -10 -5 0 -7 5 -4 10 3 6 8 10 11 10 2 0 4 -4 4 -10z m-380
-10 c0 -5 -4 -10 -10 -10 -5 0 -10 5 -10 10 0 6 5 10 10 10 6 0 10 -4 10 -10z
m30 -1 c0 -7 7 -17 15 -23 10 -8 12 -15 5 -26 -8 -12 -10 -12 -10 5 0 17 -2
18 -11 5 -9 -13 -10 -12 -5 2 3 10 1 20 -4 23 -13 8 -13 25 0 25 6 0 10 -5 10
-11z m215 -11 c5 4 5 1 1 -5 -10 -18 -23 -16 -30 3 -5 13 -4 14 7 6 8 -7 18
-8 22 -4z m52 -4 c-3 -3 -12 -4 -19 -1 -8 3 -5 6 6 6 11 1 17 -2 13 -5z m29
-19 c-3 -8 3 -16 12 -18 15 -4 15 -5 1 -6 -9 0 -23 7 -30 16 -12 14 -12 16 0
8 11 -6 13 -4 8 9 -4 11 -3 15 4 11 6 -4 8 -13 5 -20z m25 2 c-10 -9 -11 -8
-5 6 3 10 9 15 12 12 3 -3 0 -11 -7 -18z m-72 -74 c-6 -7 -15 -10 -20 -7 -13
8 -3 21 15 21 12 0 13 -4 5 -14z m-209 -43 c0 -5 -4 -10 -10 -10 -5 0 -10 5
-10 10 0 6 5 10 10 10 6 0 10 -4 10 -10z m177 -46 c-3 -3 -12 -4 -19 -1 -8 3
-5 6 6 6 11 1 17 -2 13 -5z"/>
<path d="M516 578 c5 -7 1 -9 -12 -6 -11 3 -25 -1 -32 -9 -7 -7 -23 -13 -35
-14 -12 0 -31 -3 -42 -6 -11 -2 -49 -6 -85 -8 -36 -2 -67 -4 -70 -5 -4 -1 -60
-1 -115 1 -5 0 -20 -2 -31 -4 -12 -3 -38 -2 -58 3 l-36 8 0 -68 c0 -49 5 -73
16 -84 9 -9 12 -21 7 -28 -14 -23 -16 -42 -20 -201 l-4 -157 38 0 c21 0 49 7
61 16 12 8 28 14 35 11 6 -2 21 1 32 7 39 21 111 35 180 36 75 1 110 16 99 44
-3 9 -10 13 -15 10 -11 -6 -11 -1 -3 20 3 9 9 14 13 12 11 -7 8 38 -3 47 -7 4
-6 10 4 17 9 6 11 13 5 18 -5 4 -10 13 -10 21 0 8 -6 16 -14 19 -10 3 -12 0
-8 -11 4 -11 2 -14 -8 -11 -7 3 -25 -2 -38 -11 -24 -15 -26 -15 -42 7 l-17 23
7 -22 c3 -13 3 -23 -2 -24 -4 0 -15 -2 -23 -5 -61 -16 -73 -17 -66 -3 4 8 2 7
-6 -2 -18 -22 -40 -28 -60 -17 -11 5 -18 5 -18 -1 0 -5 6 -12 13 -14 7 -3 5
-6 -5 -6 -10 -1 -18 6 -18 15 0 8 -5 12 -10 9 -6 -4 -9 -1 -8 7 2 7 -3 12 -10
10 -8 -1 -11 2 -7 8 5 8 11 8 19 1 9 -7 17 -7 26 2 9 8 11 9 6 0 -14 -25 16
-23 51 4 20 15 33 22 29 14 -6 -9 -5 -12 5 -9 8 3 13 14 11 24 -2 15 11 27 48
47 35 19 50 23 50 14 0 -8 12 -14 30 -14 17 0 30 4 30 8 0 4 9 5 19 2 16 -4
21 2 27 34 4 21 11 41 16 44 6 4 6 15 -1 28 -7 12 -9 27 -5 33 4 7 3 8 -4 4
-8 -5 -12 3 -12 23 0 27 4 31 42 41 51 14 78 38 57 51 -20 12 -32 11 -23 -3z
m-222 -57 c-8 -8 -34 -10 -38 -2 -3 4 6 7 19 7 14 0 22 -2 19 -5z m-251 -261
c-3 -11 -7 -20 -9 -20 -2 0 -4 9 -4 20 0 11 4 20 9 20 5 0 7 -9 4 -20z m30
-80 c16 0 18 3 8 9 -10 6 -10 10 -1 16 16 10 23 0 16 -23 -5 -14 -18 -21 -41
-24 -31 -4 -35 -1 -35 20 0 13 4 20 10 17 6 -3 11 2 11 12 1 13 3 12 6 -4 3
-16 11 -23 26 -23z"/>
<path d="M5575 582 c-13 -9 -18 -52 -6 -52 5 0 11 14 13 30 3 17 4 30 4 30 -1
0 -5 -4 -11 -8z"/>
<path d="M5628 583 c-10 -2 -18 -8 -18 -13 0 -5 -3 -15 -6 -24 -3 -9 -1 -16 5
-16 6 0 11 7 11 16 0 9 8 23 18 30 18 14 17 14 -10 7z"/>
<path d="M6144 575 c11 -8 22 -12 25 -9 6 6 -19 24 -34 24 -5 -1 -1 -7 9 -15z"/>
<path d="M5830 559 c0 -5 5 -7 10 -4 6 3 10 8 10 11 0 2 -4 4 -10 4 -5 0 -10
-5 -10 -11z"/>
<path d="M5185 540 c-3 -5 -1 -10 4 -10 6 0 11 5 11 10 0 6 -2 10 -4 10 -3 0
-8 -4 -11 -10z"/>
<path d="M5868 543 c7 -3 16 -2 19 1 4 3 -2 6 -13 5 -11 0 -14 -3 -6 -6z"/>
<path d="M6096 524 c-6 -15 -4 -15 11 -3 10 7 20 15 22 16 2 2 -3 3 -11 3 -9
0 -19 -7 -22 -16z"/>
<path d="M5683 516 c6 -16 4 -18 -22 -13 -22 5 -29 3 -25 -6 3 -8 17 -11 39
-9 40 5 41 7 18 30 -16 16 -16 16 -10 -2z"/>
<path d="M5555 510 c3 -5 8 -10 11 -10 2 0 4 5 4 10 0 6 -5 10 -11 10 -5 0 -7
-4 -4 -10z"/>
<path d="M5878 513 c7 -3 16 -2 19 1 4 3 -2 6 -13 5 -11 0 -14 -3 -6 -6z"/>
<path d="M5184 502 c-14 -9 -29 -66 -15 -58 8 5 34 66 28 66 -1 0 -7 -4 -13
-8z"/>
<path d="M5565 490 c-15 -16 -16 -20 -3 -15 9 4 28 -1 42 -10 25 -17 25 -16
13 8 -6 14 -15 23 -18 21 -4 -2 -9 1 -11 7 -2 6 -12 1 -23 -11z"/>
<path d="M5748 493 c7 -3 16 -2 19 1 4 3 -2 6 -13 5 -11 0 -14 -3 -6 -6z"/>
<path d="M5875 490 c-3 -5 -1 -10 4 -10 6 0 11 5 11 10 0 6 -2 10 -4 10 -3 0
-8 -4 -11 -10z"/>
<path d="M5756 471 c-4 -5 3 -7 14 -4 23 6 26 13 6 13 -8 0 -17 -4 -20 -9z"/>
<path d="M6211 464 c0 -11 3 -14 6 -6 3 7 2 16 -1 19 -3 4 -6 -2 -5 -13z"/>
<path d="M6230 471 c0 -6 5 -13 10 -16 6 -3 10 1 10 9 0 9 -4 16 -10 16 -5 0
-10 -4 -10 -9z"/>
<path d="M5848 463 c6 -2 18 -2 25 0 6 3 1 5 -13 5 -14 0 -19 -2 -12 -5z"/>
<path d="M6156 462 c-2 -4 -1 -14 5 -22 7 -12 9 -10 9 8 0 23 -5 28 -14 14z"/>
<path d="M5481 444 c0 -11 3 -14 6 -6 3 7 2 16 -1 19 -3 4 -6 -2 -5 -13z"/>
<path d="M6052 443 c-6 -11 -8 -24 -4 -28 4 -5 -1 -5 -11 -2 -12 5 -16 3 -11
-5 5 -7 2 -9 -9 -5 -14 5 -14 2 0 -31 16 -39 31 -61 19 -28 -5 14 -2 17 9 12
8 -3 15 -1 15 4 0 6 -7 10 -15 10 -8 0 -15 8 -15 17 0 13 3 14 12 5 16 -16 31
-15 25 2 -3 7 -1 18 5 24 7 7 7 16 0 28 -9 16 -10 16 -20 -3z"/>
<path d="M6291 444 c0 -11 3 -14 6 -6 3 7 2 16 -1 19 -3 4 -6 -2 -5 -13z"/>
<path d="M5104 419 c-3 -6 -2 -15 4 -21 6 -6 11 -2 15 11 5 22 -7 29 -19 10z"/>
<path d="M5740 418 c0 -4 4 -8 9 -8 6 0 12 4 15 8 3 5 -1 9 -9 9 -8 0 -15 -4
-15 -9z"/>
<path d="M5907 417 c4 -6 0 -8 -10 -4 -10 3 -17 2 -17 -2 0 -5 7 -11 15 -15 8
-3 15 -1 15 5 0 6 7 9 15 5 8 -3 15 -2 15 3 0 5 -9 11 -20 14 -13 3 -18 1 -13
-6z"/>
<path d="M6188 423 c6 -2 18 -2 25 0 6 3 1 5 -13 5 -14 0 -19 -2 -12 -5z"/>
<path d="M5668 413 c6 -2 18 -2 25 0 6 3 1 5 -13 5 -14 0 -19 -2 -12 -5z"/>
<path d="M5135 400 c3 -5 8 -10 11 -10 2 0 4 5 4 10 0 6 -5 10 -11 10 -5 0 -7
-4 -4 -10z"/>
<path d="M5851 401 c-11 -7 -9 -10 8 -16 13 -4 25 -4 28 -1 4 3 -1 6 -11 6 -9
0 -14 5 -11 10 8 12 4 12 -14 1z"/>
<path d="M6150 401 c0 -6 3 -10 8 -10 18 3 26 -2 15 -9 -18 -11 -5 -48 18 -49
10 -1 26 -9 35 -17 17 -18 28 -21 19 -6 -3 6 1 10 9 10 11 0 16 9 16 30 0 23
4 30 20 30 18 0 30 19 13 21 -5 0 -16 2 -25 4 -12 2 -18 -3 -18 -16 0 -25 -16
-24 -23 1 -3 11 -11 20 -17 20 -10 0 -10 -3 0 -15 9 -10 9 -15 1 -15 -6 0 -14
0 -18 0 -5 0 -8 6 -8 13 0 6 -10 13 -22 15 -13 2 -23 -1 -23 -7z m70 -51 c0
-5 8 -10 17 -10 9 0 14 -3 10 -6 -8 -8 -47 5 -47 17 0 5 5 9 10 9 6 0 10 -4
10 -10z"/>
<path d="M5800 389 c0 -5 5 -7 10 -4 6 3 10 8 10 11 0 2 -4 4 -10 4 -5 0 -10
-5 -10 -11z"/>
<path d="M6321 384 c0 -11 3 -14 6 -6 3 7 2 16 -1 19 -3 4 -6 -2 -5 -13z"/>
<path d="M5670 371 c0 -25 6 -27 13 -6 4 8 2 17 -3 20 -6 4 -10 -3 -10 -14z"/>
<path d="M5981 373 c-18 -20 -6 -29 14 -10 8 9 12 18 8 20 -5 3 -14 -2 -22
-10z"/>
<path d="M5090 371 c0 -6 4 -13 10 -16 6 -3 7 1 4 9 -7 18 -14 21 -14 7z"/>
<path d="M5124 371 c12 -19 -6 -42 -28 -35 -19 6 -19 5 4 -14 l25 -21 -25 -1
-25 0 29 -15 c37 -19 46 -19 46 3 0 14 -2 15 -10 2 -5 -8 -10 -13 -11 -10 -5
28 -4 52 3 56 4 3 8 0 8 -5 0 -6 5 -11 11 -11 6 0 7 5 2 13 -4 6 -6 20 -5 30
2 10 -3 17 -13 17 -9 0 -14 -4 -11 -9z"/>
<path d="M5846 367 c3 -10 9 -15 12 -12 3 3 0 11 -7 18 -10 9 -11 8 -5 -6z"/>
<path d="M6140 365 c0 -8 -6 -15 -14 -15 -20 0 -27 -26 -16 -55 11 -29 25 -34
18 -7 -3 12 0 19 9 19 9 0 11 -7 7 -20 -5 -16 -3 -19 11 -14 9 4 18 7 20 7 2
0 -4 15 -13 33 -9 17 -15 40 -14 50 2 9 1 17 -2 17 -3 0 -6 -7 -6 -15z m-11
-46 c-16 -10 -23 -4 -14 10 3 6 11 8 17 5 6 -4 5 -9 -3 -15z"/>
<path d="M5170 360 c0 -5 4 -10 9 -10 4 0 7 -12 5 -27 -4 -28 -4 -28 5 -3 4
14 6 31 3 38 -5 14 -22 16 -22 2z"/>
<path d="M5702 339 c-1 -38 22 -34 26 4 2 18 -1 27 -11 27 -9 0 -14 -11 -15
-31z"/>
<path d="M5890 361 c0 -9 30 -24 36 -18 2 1 -6 8 -16 15 -11 7 -20 8 -20 3z"/>
<path d="M5616 342 c-3 -5 1 -15 9 -22 21 -17 27 -9 10 13 -7 10 -16 14 -19 9z"/>
<path d="M5650 340 c8 -5 20 -10 25 -10 6 0 3 5 -5 10 -8 5 -19 10 -25 10 -5
0 -3 -5 5 -10z"/>
<path d="M5866 341 c-4 -7 -5 -15 -2 -18 9 -9 19 4 14 18 -4 11 -6 11 -12 0z"/>
<path d="M5946 343 c6 -4 14 -15 17 -23 5 -11 6 -9 4 4 -1 11 -9 21 -17 23
-10 3 -11 2 -4 -4z"/>
<path d="M6310 340 c-8 -5 -12 -11 -9 -14 2 -3 11 -1 19 4 8 5 12 11 9 14 -2
3 -11 1 -19 -4z"/>
<path d="M5765 330 c3 -5 -3 -17 -13 -27 -10 -10 -22 -26 -25 -35 -5 -15 -3
-16 18 -6 13 6 21 16 19 23 -3 7 2 19 10 28 14 13 14 16 0 21 -8 3 -12 2 -9
-4z"/>
<path d="M5814 324 c-18 -14 -18 -15 4 -4 27 13 31 -3 5 -20 -17 -11 -17 -11
-1 -6 10 3 20 1 24 -5 3 -6 12 -8 20 -5 9 3 14 -1 15 -12 0 -9 5 -2 10 16 6
19 8 39 5 45 -2 7 -5 2 -5 -10 -1 -18 -7 -23 -26 -23 -17 0 -23 4 -19 14 8 21
-11 27 -32 10z"/>
<path d="M5601 294 c-1 -23 16 -34 51 -34 17 0 18 3 8 15 -7 8 -21 15 -30 15
-10 0 -21 6 -23 13 -3 6 -6 2 -6 -9z"/>
<path d="M5675 290 c4 -13 14 -30 21 -38 9 -8 12 -24 8 -40 -4 -20 -3 -23 5
-12 8 12 11 12 17 -5 7 -18 8 -18 14 1 10 27 100 29 100 2 0 -10 4 -18 9 -18
4 0 6 11 3 25 -4 23 -8 25 -37 19 -37 -7 -55 9 -28 24 14 8 12 10 -10 9 -15
-1 -27 -6 -27 -10 0 -5 -4 -6 -9 -3 -5 4 -11 1 -13 -5 -2 -6 -10 2 -18 18 -8
15 -21 35 -29 43 -12 12 -13 11 -6 -10z"/>
<path d="M5931 283 c0 -12 -9 -27 -18 -32 -10 -6 -13 -10 -8 -11 22 0 37 18
32 41 -4 23 -4 23 -6 2z"/>
<path d="M6000 280 c0 -13 20 -13 40 0 12 8 9 10 -12 10 -16 0 -28 -4 -28 -10z"/>
<path d="M6190 283 c0 -7 -7 -13 -16 -13 -8 0 -12 -5 -9 -10 4 -6 10 -8 15 -5
4 3 10 0 12 -7 3 -8 6 -7 10 3 3 9 2 22 -3 30 -6 10 -9 10 -9 2z"/>
<path d="M5820 270 c-9 -6 -10 -10 -3 -10 6 0 15 5 18 10 8 12 4 12 -15 0z"/>
<path d="M5590 250 c-8 -5 -12 -12 -9 -15 4 -3 12 1 19 10 14 17 11 19 -10 5z"/>
<path d="M5095 240 c3 -5 8 -10 11 -10 2 0 4 5 4 10 0 6 -5 10 -11 10 -5 0 -7
-4 -4 -10z"/>
<path d="M5006 232 c-3 -5 1 -9 9 -9 8 0 12 4 9 9 -3 4 -7 8 -9 8 -2 0 -6 -4
-9 -8z"/>
<path d="M5895 200 c3 -5 10 -10 16 -10 5 0 9 5 9 10 0 6 -7 10 -16 10 -8 0
-12 -4 -9 -10z"/>
<path d="M5787 185 c-8 -19 11 -31 26 -16 8 8 8 11 -2 11 -7 0 -9 5 -6 10 3 6
2 10 -3 10 -6 0 -12 -7 -15 -15z"/>
<path d="M5718 168 c5 -5 16 -8 23 -6 8 3 3 7 -10 11 -17 4 -21 3 -13 -5z"/>
<path d="M5155 159 c-4 -6 -5 -12 -2 -15 2 -3 7 2 10 11 7 17 1 20 -8 4z"/>
<path d="M5636 135 c-8 -22 3 -40 16 -27 7 7 7 16 1 27 -9 16 -10 16 -17 0z"/>
<path d="M5708 126 c-3 -14 -2 -26 3 -26 14 0 20 20 11 36 -8 14 -10 12 -14
-10z"/>
<path d="M5770 130 c0 -5 5 -10 10 -10 6 0 10 5 10 10 0 6 -4 10 -10 10 -5 0
-10 -4 -10 -10z"/>
<path d="M5812 80 c0 -14 2 -19 5 -12 2 6 2 18 0 25 -3 6 -5 1 -5 -13z"/>
<path d="M5021 72 c-14 -27 -14 -29 5 -36 12 -4 14 -1 9 14 -5 16 -3 19 12 14
10 -3 14 -2 8 3 -5 4 -13 12 -17 16 -3 5 -11 0 -17 -11z"/>
<path d="M5770 75 c0 -8 7 -15 16 -15 14 0 14 3 4 15 -7 8 -14 15 -16 15 -2 0
-4 -7 -4 -15z"/>
<path d="M4951 34 c0 -11 3 -14 6 -6 3 7 2 16 -1 19 -3 4 -6 -2 -5 -13z"/>
<path d="M5775 30 c-3 -5 -1 -10 4 -10 6 0 11 5 11 10 0 6 -2 10 -4 10 -3 0
-8 -4 -11 -10z"/>
</g>
</svg>
